<?xml version="1.0" standalone="no"?>
<!DOCTYPE svg PUBLIC "-//W3C//DTD SVG 20010904//EN"
 "http://www.w3.org/TR/2001/REC-SVG-20010904/DTD/svg10.dtd">
<svg version="1.0" xmlns="http://www.w3.org/2000/svg"
 width="384.000000pt" height="560.000000pt" viewBox="0 0 384.000000 560.000000"
 preserveAspectRatio="xMidYMid meet">

<g transform="translate(0.000000,560.000000) scale(0.100000,-0.100000)"
fill="#000000" stroke="none">
<path d="M2642 5068 c-11 -24 -31 -54 -46 -67 -14 -14 -26 -28 -26 -33 0 -19
58 26 81 63 24 40 39 49 39 25 0 -19 -41 -118 -57 -137 -8 -9 -12 -27 -8 -40
7 -31 -61 -149 -97 -166 -14 -7 -30 -19 -35 -25 -16 -21 -33 -77 -27 -92 6
-17 44 -10 61 11 10 13 14 12 33 -7 16 -16 19 -28 14 -55 -7 -38 7 -60 93
-150 23 -24 49 -56 57 -72 13 -24 80 -101 141 -164 8 -9 12 -19 8 -22 -3 -4
-11 0 -17 8 -9 13 -17 14 -44 4 -42 -14 -60 -1 -64 49 -3 35 -4 36 -49 37 -65
3 -69 8 -64 68 8 81 -2 117 -39 133 -57 25 -76 48 -76 93 0 29 -5 44 -16 48
-28 10 -39 -12 -26 -54 7 -24 8 -41 1 -49 -5 -6 -7 -18 -3 -27 6 -17 -11 -56
-32 -72 -7 -5 -14 -37 -17 -70 -2 -34 -18 -97 -35 -144 -18 -46 -32 -90 -32
-97 0 -25 16 -15 33 21 9 19 24 35 32 35 13 0 14 -10 9 -57 -4 -32 -11 -66
-16 -75 -15 -31 1 -19 22 15 11 17 20 42 20 55 0 14 9 27 25 34 29 13 31 21
10 38 -17 14 -18 20 -5 40 7 12 12 11 31 -5 22 -20 22 -20 15 0 -5 11 -11 29
-14 40 -2 11 -12 28 -20 38 -8 9 -15 31 -15 47 0 75 56 55 73 -25 6 -27 14
-55 18 -61 14 -22 49 -33 89 -27 30 4 41 2 46 -10 9 -25 -17 -41 -43 -25 -18
12 -23 10 -40 -12 -11 -14 -20 -30 -20 -36 0 -21 35 -43 58 -37 17 4 24 1 28
-14 8 -30 66 -57 108 -49 21 4 36 13 36 21 0 7 4 25 10 40 9 23 12 24 32 14
16 -9 23 -9 26 0 5 16 37 14 52 -5 11 -13 10 -16 -8 -21 -12 -3 -19 -9 -16
-14 10 -17 46 -9 65 14 l19 22 25 -30 c14 -16 25 -36 25 -43 0 -7 9 -20 21
-30 11 -9 37 -44 56 -77 20 -33 51 -79 69 -103 18 -24 36 -56 39 -72 4 -17 10
-32 15 -35 13 -8 -5 56 -28 102 -12 23 -22 45 -22 49 0 4 16 4 35 1 l34 -6
-33 30 c-19 16 -39 44 -47 61 -7 18 -25 48 -41 66 -15 18 -28 43 -28 56 0 28
-25 92 -40 101 -5 3 -10 10 -10 16 0 20 19 7 46 -33 16 -24 39 -56 51 -71 13
-16 23 -41 23 -57 0 -15 6 -30 14 -33 8 -3 22 -22 31 -41 17 -36 55 -53 40
-18 -4 9 -14 35 -22 57 -8 22 -20 47 -28 55 -7 8 -16 31 -20 50 -4 20 -21 48
-40 66 -19 18 -38 49 -45 73 -6 22 -17 41 -24 41 -8 0 -19 7 -27 16 -7 8 -30
24 -51 35 -21 11 -38 26 -38 34 0 8 -7 15 -15 15 -8 0 -15 -7 -15 -15 0 -24
27 -82 47 -104 29 -31 58 -120 44 -134 -8 -8 -11 -8 -11 0 0 6 -18 34 -41 63
-22 28 -48 73 -57 99 -32 89 -73 145 -188 252 -39 36 -64 38 -64 4 0 -33 -16
-32 -49 4 -26 28 -27 31 -13 58 20 38 17 36 44 22 38 -21 91 -39 119 -39 15 0
29 -7 33 -15 3 -8 43 -40 89 -70 94 -61 103 -69 112 -108 8 -30 25 -37 25 -9
0 34 -39 80 -108 125 -38 26 -75 54 -82 63 -20 23 -65 44 -95 44 -26 0 -125
82 -125 103 0 6 -10 21 -22 34 l-21 23 26 62 c29 68 33 88 17 88 -5 0 -10 7
-10 15 0 8 3 15 8 15 17 0 53 101 50 143 -4 59 -30 62 -56 5z m-2 -438 c0 -5
-4 -10 -10 -10 -5 0 -10 5 -10 10 0 6 5 10 10 10 6 0 10 -4 10 -10z m106 -177
c3 -10 15 -38 27 -63 12 -25 23 -49 25 -53 3 -5 -5 -4 -17 2 -23 13 -71 89
-71 114 0 22 29 22 36 0z m118 -169 c6 -10 22 -33 36 -50 14 -17 37 -51 52
-75 15 -24 35 -54 44 -66 16 -22 15 -23 -4 -23 -21 0 -72 59 -72 84 0 16 -7
24 -66 75 -21 19 -34 36 -27 38 6 2 8 13 5 25 -6 26 17 21 32 -8z m-394 -69
c0 -8 -5 -15 -10 -15 -6 0 -16 -12 -22 -27 -9 -22 -12 -24 -15 -11 -4 17 25
67 40 68 4 0 7 -7 7 -15z m630 -180 c7 -8 8 -15 2 -15 -5 0 -15 7 -22 15 -7 8
-8 15 -2 15 5 0 15 -7 22 -15z"/>
<path d="M2849 4973 c-6 -21 -24 -56 -39 -78 -15 -22 -31 -58 -36 -80 -9 -35
-13 -40 -41 -43 -62 -6 -108 -82 -49 -82 15 0 25 10 34 33 11 28 14 30 23 14
7 -13 7 -27 0 -49 -14 -40 -16 -35 19 -57 17 -10 41 -16 54 -14 21 4 25 14 39
101 19 114 29 292 17 292 -5 0 -14 -17 -21 -37z m-12 -265 c-3 -8 -6 -5 -6 6
-1 11 2 17 5 13 3 -3 4 -12 1 -19z"/>
<path d="M2488 4891 c-18 -15 -52 -40 -75 -54 -23 -15 -52 -41 -65 -58 -19
-26 -28 -29 -53 -25 -20 4 -39 0 -53 -10 -13 -9 -30 -13 -38 -10 -8 3 -38 -3
-67 -14 -29 -11 -62 -20 -75 -20 -32 0 -136 -35 -207 -70 -69 -34 -55 -39 25
-10 57 21 165 47 235 57 22 3 48 12 58 21 15 14 21 10 18 -10 0 -5 13 -8 30
-8 22 0 32 -5 36 -20 4 -14 14 -20 34 -20 16 0 33 -8 39 -17 8 -14 9 -9 5 23
-11 71 25 126 150 231 28 23 47 42 43 42 -4 1 -22 -12 -40 -28z"/>
<path d="M2425 4550 c-4 -12 -5 -24 -2 -27 3 -2 8 5 12 17 4 12 5 24 2 27 -3
2 -8 -5 -12 -17z"/>
<path d="M1730 4545 c-16 -19 -1 -19 24 0 16 12 17 15 4 15 -8 0 -21 -7 -28
-15z"/>
<path d="M1490 4353 c-19 -18 -68 -64 -108 -101 -40 -37 -95 -101 -122 -143
-53 -83 -76 -102 -132 -113 -24 -4 -46 -18 -64 -39 -14 -18 -40 -39 -57 -47
-19 -9 -34 -26 -38 -44 -5 -16 -23 -45 -42 -65 -18 -20 -46 -65 -62 -101 -16
-36 -39 -78 -51 -95 -52 -73 -68 -137 -42 -163 9 -9 9 -17 -1 -35 -9 -16 -11
-56 -7 -138 9 -185 9 -191 1 -252 -7 -51 -10 -58 -29 -55 -24 3 -24 0 -12 258
7 150 6 163 -8 146 -9 -11 -16 -30 -16 -43 0 -12 -13 -37 -28 -55 -15 -18 -36
-58 -46 -88 -11 -30 -24 -61 -30 -69 -6 -8 -12 -26 -13 -40 -2 -14 -5 -51 -7
-81 -3 -30 -7 -83 -10 -118 -3 -34 -1 -83 4 -108 6 -26 7 -60 3 -77 -13 -50
-5 -87 22 -99 13 -6 31 -29 40 -52 10 -22 30 -68 46 -101 49 -107 149 -386
149 -415 -1 -29 -50 40 -50 70 0 17 -19 60 -46 104 -25 41 -47 86 -48 100 0
14 -4 26 -8 26 -5 0 -8 8 -8 18 0 24 -29 74 -67 116 -18 20 -33 40 -33 47 0
27 -25 -1 -28 -32 -5 -48 17 -109 52 -142 23 -22 27 -30 16 -40 -9 -9 -14 -9
-17 -1 -2 6 -10 20 -18 30 -13 16 -16 17 -24 4 -7 -9 -7 -18 -1 -24 6 -6 10
-34 10 -63 0 -29 4 -53 8 -53 9 0 92 -133 92 -147 0 -4 15 -27 34 -50 18 -24
43 -69 55 -100 13 -32 31 -81 42 -108 10 -28 19 -57 19 -64 0 -8 9 -32 19 -55
11 -23 22 -53 26 -68 3 -16 9 -28 14 -28 5 0 5 17 -1 38 -5 20 -11 48 -12 62
-4 34 -34 130 -45 144 -4 6 -16 34 -25 62 -9 28 -32 77 -51 109 -19 32 -35 63
-35 70 0 17 -33 88 -65 140 -28 45 -31 65 -11 65 23 0 71 -63 111 -146 20 -44
52 -104 70 -134 36 -62 70 -154 60 -169 -3 -6 1 -24 10 -41 9 -17 21 -73 26
-123 6 -50 14 -99 19 -107 6 -10 3 -21 -7 -32 -14 -16 -14 -22 6 -67 11 -27
21 -65 21 -84 0 -19 10 -57 21 -85 l21 -52 19 24 c20 26 25 46 10 46 -5 0 -11
8 -14 18 -2 9 -8 25 -12 35 -5 12 -2 17 8 17 16 0 13 33 -4 56 -13 16 -10 196
3 188 7 -5 9 2 4 22 -11 46 -25 124 -32 184 -4 30 -11 64 -17 75 -10 19 -9 19
10 2 30 -26 34 -21 18 24 -18 50 -19 80 -3 113 9 21 8 29 -5 44 -10 10 -17 25
-17 33 1 15 50 -39 50 -54 0 -5 9 -20 20 -34 15 -20 17 -28 7 -43 -14 -24 -5
-34 23 -25 15 5 19 12 14 23 -4 10 -19 51 -34 92 -15 41 -36 94 -48 117 -24
46 -29 99 -11 105 8 3 5 22 -10 61 -11 32 -21 67 -21 77 0 33 33 22 62 -20 29
-42 48 -51 48 -23 0 9 -22 37 -49 62 -49 46 -52 54 -90 197 -6 23 -8 55 -5 71
4 22 2 32 -10 36 -9 4 -16 16 -16 27 0 12 -4 29 -9 38 -12 25 -22 164 -10 157
5 -4 9 -19 9 -35 0 -16 7 -36 16 -45 9 -9 21 -35 26 -58 5 -23 15 -49 23 -57
13 -14 38 -73 74 -170 26 -72 33 -78 59 -61 11 6 7 26 -18 97 -17 49 -37 95
-44 104 -31 37 -56 89 -50 105 6 15 9 15 20 -6 7 -13 13 -32 14 -42 0 -9 12
-27 26 -40 14 -12 43 -56 64 -98 27 -53 46 -78 61 -82 38 -10 40 2 5 51 -51
70 -109 189 -118 241 -20 123 -21 133 -8 141 21 13 39 1 60 -39 18 -33 19 -34
20 -11 0 14 -6 34 -14 45 -12 18 -18 50 -28 150 -3 28 -1 30 26 27 18 -3 26 0
22 7 -4 6 -16 11 -27 11 -20 0 -23 4 -33 53 -5 20 -2 29 11 34 9 4 19 1 21 -5
2 -7 10 -12 18 -12 11 0 9 7 -8 30 -20 28 -23 29 -40 13 -21 -19 -20 -20 -45
32 -15 30 -22 71 -27 165 -5 90 -11 129 -22 140 -22 23 -47 1 -63 -56 -16 -58
-18 -61 -32 -47 -9 9 -3 28 19 75 46 94 85 163 94 166 4 2 3 13 -3 23 -9 17
-6 25 15 44 14 13 26 29 26 35 0 13 27 13 35 -1 4 -6 -3 -21 -15 -34 -12 -13
-19 -28 -16 -34 4 -6 -2 -38 -14 -72 -22 -68 -28 -203 -9 -215 18 -11 35 14
23 33 -8 13 -3 29 22 71 18 30 36 68 40 85 6 27 38 97 87 192 6 11 17 34 26
50 33 67 114 172 208 270 128 135 153 165 139 164 -6 -1 -27 -17 -46 -36z
m-575 -907 c7 -83 1 -146 -15 -146 -9 0 -20 35 -20 68 0 12 -5 31 -12 41 -9
15 -9 29 2 63 27 85 36 79 45 -26z m-78 -192 c-9 -9 -28 6 -21 18 4 6 10 6 17
-1 6 -6 8 -13 4 -17z m140 -6 c-3 -8 -6 -5 -6 6 -1 11 2 17 5 13 3 -3 4 -12 1
-19z m17 -50 c9 -36 7 -48 -8 -48 -21 0 -29 17 -22 46 8 30 22 31 30 2z m-308
-121 c1 -102 4 -131 18 -152 13 -20 16 -37 11 -64 -8 -44 -8 -47 11 -43 8 2
18 -8 23 -22 6 -13 14 -27 19 -30 15 -9 72 -135 87 -191 7 -27 16 -72 20 -100
l6 -50 -22 39 c-11 21 -34 57 -50 79 -16 22 -29 48 -29 57 0 9 -20 54 -45 100
-25 46 -45 86 -45 90 0 4 -9 15 -19 24 -11 10 -23 31 -26 46 -3 16 -12 31 -19
33 -17 7 -9 116 10 138 9 10 14 41 14 91 0 75 5 91 24 85 7 -2 11 -50 12 -130z
m176 16 c-10 -26 -10 -24 -11 22 0 42 2 46 11 28 7 -15 7 -30 0 -50z m139 -46
c-7 -7 -12 -5 -16 6 -3 9 -7 24 -10 33 -10 32 8 35 22 4 9 -22 10 -37 4 -43z
m-95 -13 l5 -39 -15 40 c-18 47 -20 63 -6 49 6 -6 13 -28 16 -50z m-80 -11
c-7 -7 -26 7 -26 19 0 6 6 6 15 -2 9 -7 13 -15 11 -17z m121 -126 c-6 -15 -37
56 -36 80 0 10 10 -1 20 -25 11 -24 18 -49 16 -55z m-167 12 c0 -11 -4 -18
-10 -14 -5 3 -7 12 -3 20 7 21 13 19 13 -6z m-100 -185 c0 -9 -5 -14 -12 -12
-18 6 -21 28 -4 28 9 0 16 -7 16 -16z m24 -59 c3 -8 1 -15 -4 -15 -6 0 -10 7
-10 15 0 8 2 15 4 15 2 0 6 -7 10 -15z m51 -176 c8 -25 27 -61 41 -80 29 -39
60 -102 67 -139 3 -14 13 -51 22 -83 9 -32 13 -67 10 -77 -3 -10 -1 -21 5 -25
11 -7 14 -105 2 -105 -13 0 -37 43 -44 80 -33 168 -44 210 -66 245 -14 22 -36
76 -49 119 -12 44 -32 89 -42 100 -19 20 -51 85 -51 103 0 21 91 -99 105 -138z
m-41 -24 c3 -9 0 -15 -9 -15 -8 0 -15 7 -15 15 0 8 4 15 9 15 5 0 11 -7 15
-15z m-82 -107 c-9 -9 -12 -7 -12 12 0 19 3 21 12 12 9 -9 9 -15 0 -24z"/>
<path d="M1981 4137 c-21 -30 -52 -65 -69 -78 -27 -23 -35 -41 -49 -112 -3
-16 -12 -31 -20 -34 -7 -3 -21 -20 -29 -37 -9 -17 -26 -39 -38 -49 -20 -17
-20 -18 -3 -31 18 -14 18 -15 -1 -25 -24 -13 -34 -61 -32 -162 1 -61 -2 -78
-14 -82 -9 -4 -16 -14 -16 -24 0 -10 -7 -27 -15 -37 -8 -11 -15 -30 -15 -42 0
-13 -8 -24 -20 -27 -16 -4 -20 -14 -20 -50 0 -31 -6 -49 -20 -62 -11 -10 -20
-26 -20 -36 0 -28 -52 -120 -88 -157 -25 -25 -32 -39 -28 -56 3 -13 -3 -39
-15 -62 -13 -26 -19 -54 -17 -84 3 -40 1 -45 -20 -48 -27 -4 -41 -30 -21 -42
19 -13 -42 -127 -98 -182 -50 -49 -53 -58 -18 -58 28 0 33 -21 10 -40 -17 -14
-20 -40 -5 -40 16 0 12 -32 -7 -52 -14 -16 -15 -22 -4 -39 10 -17 10 -25 -3
-44 -9 -13 -24 -26 -35 -30 -17 -5 -36 -33 -28 -41 2 -2 18 1 37 6 19 5 36 8
38 5 10 -9 -9 -36 -31 -44 -27 -11 -41 -55 -26 -83 5 -9 5 -27 0 -40 -4 -13
-7 -49 -6 -81 1 -43 7 -63 23 -80 16 -17 22 -38 25 -86 3 -46 8 -66 20 -73 10
-5 17 -21 17 -38 0 -17 4 -30 9 -30 21 0 71 -66 71 -93 0 -26 23 -47 36 -34 4
3 3 28 -1 55 -5 39 -12 52 -31 61 -30 14 -31 29 0 41 20 7 24 18 31 75 4 37 5
68 3 69 -1 1 -16 10 -31 20 -22 13 -26 20 -17 30 6 8 9 29 8 47 -3 29 1 34 20
37 21 3 22 0 22 -57 0 -63 9 -75 32 -43 7 10 21 21 31 25 23 8 22 24 -3 37
-30 16 -29 103 2 124 18 13 19 18 8 30 -15 19 -30 12 -30 -15 0 -12 -7 -19
-20 -19 -11 0 -20 -6 -20 -14 0 -20 -16 -29 -41 -21 -16 5 -18 10 -8 21 6 8
17 14 24 14 8 0 16 15 20 33 4 17 16 39 27 48 22 17 17 39 -8 39 -8 0 -14 9
-14 20 0 11 6 20 14 20 16 0 26 21 26 55 0 14 7 25 20 28 25 6 26 25 3 34 -46
17 -35 53 14 50 40 -2 59 21 24 30 -17 4 -21 13 -21 44 0 22 4 39 10 39 5 0
17 9 27 19 10 11 32 21 48 23 27 3 30 7 33 39 2 27 9 38 23 42 11 3 19 14 19
26 0 12 9 39 20 61 11 22 20 46 20 55 0 8 6 15 14 15 22 0 28 31 10 51 -16 18
-16 19 2 19 23 1 54 23 54 39 0 16 68 159 80 166 15 10 21 -13 8 -35 -10 -15
-10 -24 -1 -38 6 -11 9 -38 6 -64 -3 -28 -1 -48 6 -52 6 -4 11 -35 11 -72 0
-57 2 -64 20 -64 19 0 20 7 21 98 1 185 9 317 19 357 25 90 33 111 53 133 26
28 52 28 91 -1 22 -17 65 -30 144 -45 121 -23 173 -45 212 -87 34 -38 196
-143 311 -202 52 -27 131 -75 177 -107 87 -61 96 -74 132 -186 25 -77 50 -90
158 -83 65 4 88 1 107 -11 31 -20 26 -21 70 14 27 22 48 30 77 30 31 0 47 8
83 41 36 33 45 48 45 75 0 18 15 65 34 104 47 97 44 135 -20 236 -27 41 -65
94 -84 118 -19 23 -51 66 -69 96 -19 30 -52 74 -73 97 -21 24 -48 63 -60 88
-12 25 -26 45 -30 45 -12 0 51 -110 83 -145 15 -16 44 -60 64 -97 20 -38 40
-68 44 -68 9 0 101 -164 101 -179 0 -6 -27 -37 -60 -69 -59 -57 -60 -59 -60
-111 0 -39 5 -57 17 -66 15 -11 15 -17 6 -36 -7 -13 -14 -34 -18 -46 -7 -26
-85 -67 -99 -53 -12 12 -36 13 -36 1 0 -5 9 -11 20 -14 13 -3 18 -10 14 -21
-9 -24 -17 -20 -55 26 -19 24 -47 54 -62 68 -60 52 -73 66 -89 89 -17 24 -42
25 -77 2 -20 -13 2 -47 36 -54 36 -7 61 -27 65 -52 2 -14 -2 -20 -14 -19 -10
1 -18 -2 -18 -7 0 -5 -6 -9 -14 -9 -20 0 -65 57 -92 115 -24 55 -61 94 -114
120 -19 10 -45 27 -58 38 -13 12 -42 29 -65 37 -30 11 -43 22 -45 38 -4 24
-37 31 -44 10 -7 -20 -133 122 -130 146 3 28 38 56 70 56 25 0 25 -1 10 -17
-16 -15 -15 -19 24 -62 48 -53 76 -71 96 -63 18 6 8 96 -14 130 -8 12 -10 22
-4 22 5 0 10 9 10 19 0 19 -42 37 -60 26 -11 -7 -70 25 -70 37 0 13 -78 9 -82
-4 -3 -9 -14 -7 -40 5 -46 22 -51 21 -43 -3 5 -17 2 -20 -20 -20 -18 0 -29 6
-32 20 -4 16 -14 20 -48 20 -24 0 -45 -4 -47 -9 -1 -5 -23 -12 -46 -16 -39 -6
-43 -5 -40 11 5 25 -33 55 -59 48 -16 -4 -25 2 -39 25 -10 17 -34 37 -55 45
-50 20 -158 98 -158 114 -1 6 8 12 19 12 11 0 20 5 20 10 0 12 -41 30 -52 24
-4 -3 -3 9 2 25 6 23 4 39 -11 68 -10 20 -19 49 -19 63 1 24 1 24 15 6 8 -11
18 -16 22 -12 4 4 3 10 -2 14 -6 4 -17 21 -26 38 -14 27 -15 36 -3 70 7 21 18
70 23 107 7 48 17 78 36 103 14 19 24 34 21 34 -3 0 -23 -24 -45 -53z m-121
-317 c0 -5 -4 -10 -10 -10 -5 0 -10 5 -10 10 0 6 5 10 10 10 6 0 10 -4 10 -10z
m155 -270 c3 -5 -1 -10 -9 -10 -9 0 -16 5 -16 10 0 6 4 10 9 10 6 0 13 -4 16
-10z m-265 -110 c9 -16 8 -20 -5 -20 -8 0 -15 9 -15 20 0 11 2 20 5 20 2 0 9
-9 15 -20z m410 -10 c0 -5 -7 -10 -15 -10 -8 0 -15 5 -15 10 0 6 7 10 15 10 8
0 15 -4 15 -10z m-383 -52 c-3 -8 -6 -5 -6 6 -1 11 2 17 5 13 3 -3 4 -12 1
-19z m671 -1 c3 -15 -2 -18 -25 -15 -17 2 -29 10 -31 21 -3 15 2 18 25 15 17
-2 29 -10 31 -21z m-706 -49 c-7 -7 -12 -8 -12 -2 0 14 12 26 19 19 2 -3 -1
-11 -7 -17z m858 -27 c0 -17 -12 -41 -21 -41 -10 0 -12 33 -2 43 9 10 23 9 23
-2z m-890 -35 c0 -3 -4 -8 -10 -11 -5 -3 -10 -1 -10 4 0 6 5 11 10 11 6 0 10
-2 10 -4z m-45 -45 c-3 -6 -11 -11 -17 -11 -6 0 -6 6 2 15 14 17 26 13 15 -4z
m-43 -43 c-7 -7 -12 -8 -12 -2 0 14 12 26 19 19 2 -3 -1 -11 -7 -17z m-39 -68
c-5 -19 -23 -29 -23 -12 0 7 20 32 26 32 1 0 0 -9 -3 -20z m2075 -81 c-2 -6
-7 -10 -11 -10 -4 1 -14 1 -22 1 -8 0 -15 5 -15 10 0 6 12 10 26 10 14 0 24
-5 22 -11z m-1868 -19 c0 -5 -4 -10 -10 -10 -5 0 -10 5 -10 10 0 6 5 10 10 10
6 0 10 -4 10 -10z m-25 -30 c-3 -5 -13 -10 -21 -10 -8 0 -14 5 -14 10 0 6 9
10 21 10 11 0 17 -4 14 -10z m-135 -120 c0 -5 -4 -10 -10 -10 -5 0 -10 5 -10
10 0 6 5 10 10 10 6 0 10 -4 10 -10z m35 -40 c3 -5 1 -10 -4 -10 -6 0 -11 5
-11 10 0 6 2 10 4 10 3 0 8 -4 11 -10z m1930 1 c5 -9 -48 -41 -69 -41 -11 0
44 49 56 50 4 0 9 -4 13 -9z m-2035 -80 c0 -5 -6 -14 -14 -20 -12 -10 -13 -8
-9 8 5 21 23 30 23 12z m78 -44 c2 -10 -3 -17 -12 -17 -8 0 -18 -9 -21 -20 -8
-26 -45 -27 -45 -1 0 10 9 21 20 24 11 3 20 13 20 22 0 22 34 15 38 -8z m-128
-32 c0 -4 -47 -75 -56 -84 -15 -15 0 30 16 49 11 13 20 27 20 32 0 4 5 8 10 8
6 0 10 -2 10 -5z m-120 -44 c0 -5 -7 -11 -15 -15 -15 -5 -20 5 -8 17 9 10 23
9 23 -2z m-40 -35 c0 -3 -4 -8 -10 -11 -5 -3 -10 -1 -10 4 0 6 5 11 10 11 6 0
10 -2 10 -4z m-10 -81 c0 -8 -4 -15 -10 -15 -5 0 -7 7 -4 15 4 8 8 15 10 15 2
0 4 -7 4 -15z m90 -51 c0 -8 -4 -12 -10 -9 -5 3 -10 10 -10 16 0 5 5 9 10 9 6
0 10 -7 10 -16z m50 -75 c0 -25 -33 -22 -38 4 -2 12 3 17 17 17 15 0 21 -6 21
-21z m-80 3 c0 -13 -12 -22 -22 -16 -10 6 -1 24 13 24 5 0 9 -4 9 -8z m-45
-242 c3 -5 1 -10 -4 -10 -6 0 -11 5 -11 10 0 6 2 10 4 10 3 0 8 -4 11 -10z
m43 -323 c2 -19 -1 -27 -13 -27 -19 0 -30 24 -21 46 9 23 31 11 34 -19z"/>
<path d="M2610 4011 c0 -10 11 -33 25 -52 14 -19 35 -50 47 -69 18 -27 24 -31
26 -17 2 10 -13 37 -37 62 -25 28 -41 54 -41 70 0 14 -4 25 -10 25 -5 0 -10
-8 -10 -19z"/>
<path d="M3012 3999 c2 -7 10 -15 17 -17 8 -3 12 1 9 9 -2 7 -10 15 -17 17 -8
3 -12 -1 -9 -9z"/>
<path d="M2741 3949 c11 -16 26 -29 34 -29 7 0 20 -6 27 -14 17 -16 58 -30 58
-19 -1 21 -50 61 -93 75 l-46 15 20 -28z"/>
<path d="M1362 3928 c-15 -39 -10 -46 11 -15 8 13 12 29 8 35 -4 7 -12 -1 -19
-20z"/>
<path d="M1262 3868 c-14 -14 -16 -42 -2 -33 14 9 32 45 22 45 -4 0 -13 -5
-20 -12z"/>
<path d="M1330 3865 c-7 -9 -10 -18 -7 -21 3 -3 10 4 17 15 13 25 8 27 -10 6z"/>
<path d="M2860 3832 c0 -5 14 -21 31 -38 l30 -29 -11 30 c-11 28 -26 45 -42
45 -5 0 -8 -4 -8 -8z"/>
<path d="M1286 3784 c-9 -22 3 -32 14 -14 12 19 12 30 1 30 -5 0 -12 -7 -15
-16z"/>
<path d="M1205 3781 c-6 -11 9 -23 19 -14 9 9 7 23 -3 23 -6 0 -12 -4 -16 -9z"/>
<path d="M2775 3780 c3 -5 10 -10 16 -10 5 0 9 5 9 10 0 6 -7 10 -16 10 -8 0
-12 -4 -9 -10z"/>
<path d="M2965 3660 c3 -5 8 -10 11 -10 2 0 4 5 4 10 0 6 -5 10 -11 10 -5 0
-7 -4 -4 -10z"/>
<path d="M3074 3595 c21 -19 40 -35 44 -35 3 0 -9 16 -28 35 -19 19 -38 35
-43 35 -6 0 7 -16 27 -35z"/>
<path d="M1679 3544 c-11 -14 -10 -16 9 -12 13 1 23 7 23 13 1 17 -17 16 -32
-1z"/>
<path d="M1077 3512 c-24 -26 -21 -34 11 -30 19 2 27 9 27 22 0 27 -18 30 -38
8z"/>
<path d="M1570 3500 c0 -5 5 -10 10 -10 6 0 10 5 10 10 0 6 -4 10 -10 10 -5 0
-10 -4 -10 -10z"/>
<path d="M3156 3479 c16 -20 31 -34 33 -32 3 2 -10 18 -29 36 l-34 32 30 -36z"/>
<path d="M2610 3485 c0 -9 5 -15 11 -13 6 2 11 8 11 13 0 5 -5 11 -11 13 -6 2
-11 -4 -11 -13z"/>
<path d="M2690 3490 c0 -5 5 -10 10 -10 6 0 10 5 10 10 0 6 -4 10 -10 10 -5 0
-10 -4 -10 -10z"/>
<path d="M1537 3457 c-11 -29 -9 -53 4 -40 6 6 9 21 7 34 -3 21 -4 22 -11 6z"/>
<path d="M1616 3455 c4 -8 8 -15 10 -15 2 0 4 7 4 15 0 8 -4 15 -10 15 -5 0
-7 -7 -4 -15z"/>
<path d="M2490 3456 c0 -9 5 -16 10 -16 6 0 10 4 10 9 0 6 -4 13 -10 16 -5 3
-10 -1 -10 -9z"/>
<path d="M1087 3434 c-16 -16 -6 -35 16 -32 12 2 22 10 22 18 0 16 -26 25 -38
14z"/>
<path d="M1530 3351 c0 -5 5 -13 10 -16 6 -3 10 -2 10 4 0 5 -4 13 -10 16 -5
3 -10 2 -10 -4z"/>
<path d="M1457 3337 c-5 -13 2 -27 23 -49 20 -20 30 -25 30 -14 0 8 -8 21 -19
28 -10 7 -20 22 -23 33 -3 19 -4 19 -11 2z"/>
<path d="M1445 3220 c-3 -5 -2 -10 4 -10 5 0 13 5 16 10 3 6 2 10 -4 10 -5 0
-13 -4 -16 -10z"/>
<path d="M1398 3159 c-9 -9 -19 -28 -23 -40 -7 -22 -6 -23 10 -9 15 13 40 60
33 65 -2 1 -10 -6 -20 -16z"/>
<path d="M2970 3100 c0 -5 5 -10 11 -10 5 0 7 5 4 10 -3 6 -8 10 -11 10 -2 0
-4 -4 -4 -10z"/>
<path d="M1335 3060 c-3 -5 -1 -10 4 -10 6 0 11 5 11 10 0 6 -2 10 -4 10 -3 0
-8 -4 -11 -10z"/>
<path d="M2920 3060 l-25 -8 28 -1 c15 -1 27 4 27 9 0 6 -1 10 -2 9 -2 -1 -14
-5 -28 -9z"/>
<path d="M3050 2975 c0 -12 50 -59 55 -53 4 3 -6 18 -20 32 -26 26 -35 31 -35
21z"/>
<path d="M1850 2900 c0 -5 5 -10 10 -10 6 0 10 5 10 10 0 6 -4 10 -10 10 -5 0
-10 -4 -10 -10z"/>
<path d="M1855 2811 c-6 -11 9 -23 19 -14 9 9 7 23 -3 23 -6 0 -12 -4 -16 -9z"/>
<path d="M1370 2780 c0 -11 7 -20 15 -20 8 0 15 9 15 20 0 11 -7 20 -15 20 -8
0 -15 -9 -15 -20z"/>
<path d="M1920 2752 c0 -5 6 -16 13 -27 16 -20 31 -7 21 19 -6 16 -34 23 -34
8z"/>
<path d="M1951 2664 c0 -11 3 -14 6 -6 3 7 2 16 -1 19 -3 4 -6 -2 -5 -13z"/>
<path d="M1775 2591 c-3 -5 -1 -12 5 -16 5 -3 10 1 10 9 0 18 -6 21 -15 7z"/>
<path d="M1960 2580 c0 -5 5 -10 11 -10 5 0 7 5 4 10 -3 6 -8 10 -11 10 -2 0
-4 -4 -4 -10z"/>
<path d="M580 2544 c0 -8 5 -12 10 -9 6 3 10 10 10 16 0 5 -4 9 -10 9 -5 0
-10 -7 -10 -16z"/>
<path d="M1560 2539 c0 -20 4 -21 42 -15 48 8 53 10 43 25 -3 6 -24 11 -46 11
-33 0 -39 -3 -39 -21z"/>
<path d="M1730 2540 c0 -5 5 -10 10 -10 6 0 10 5 10 10 0 6 -4 10 -10 10 -5 0
-10 -4 -10 -10z"/>
<path d="M1950 2506 c0 -8 5 -18 10 -21 6 -3 10 3 10 14 0 12 -4 21 -10 21 -5
0 -10 -6 -10 -14z"/>
<path d="M1680 2496 c0 -7 8 -20 17 -27 15 -12 16 -12 10 4 -4 10 -7 23 -7 28
0 5 -4 9 -10 9 -5 0 -10 -6 -10 -14z"/>
<path d="M1770 2500 c0 -5 5 -10 11 -10 5 0 7 5 4 10 -3 6 -8 10 -11 10 -2 0
-4 -4 -4 -10z"/>
<path d="M1050 2470 c0 -5 5 -10 10 -10 6 0 10 5 10 10 0 6 -4 10 -10 10 -5 0
-10 -4 -10 -10z"/>
<path d="M1255 2459 c-11 -17 1 -21 15 -4 8 9 8 15 2 15 -6 0 -14 -5 -17 -11z"/>
<path d="M1971 2459 c-1 -9 9 -24 22 -35 22 -19 22 -19 6 1 -9 11 -19 27 -22
35 -5 13 -6 13 -6 -1z"/>
<path d="M1220 2409 c-7 -11 -10 -23 -7 -25 2 -2 9 7 15 21 14 30 7 33 -8 4z"/>
<path d="M1730 2420 c0 -5 5 -10 11 -10 5 0 7 5 4 10 -3 6 -8 10 -11 10 -2 0
-4 -4 -4 -10z"/>
<path d="M1690 2371 c0 -11 5 -23 10 -26 6 -4 10 5 10 19 0 14 -4 26 -10 26
-5 0 -10 -9 -10 -19z"/>
<path d="M1160 2325 c-19 -19 -31 -35 -27 -35 7 0 67 60 67 66 0 8 -8 2 -40
-31z"/>
<path d="M1524 2349 c-10 -17 13 -36 27 -22 12 12 4 33 -11 33 -5 0 -12 -5
-16 -11z"/>
<path d="M1990 2340 c0 -5 7 -10 15 -10 8 0 15 5 15 10 0 6 -7 10 -15 10 -8 0
-15 -4 -15 -10z"/>
<path d="M1606 2316 c3 -8 12 -17 20 -20 12 -4 12 -2 4 14 -12 23 -32 27 -24
6z"/>
<path d="M1059 2302 c5 -10 18 -25 27 -33 16 -12 16 -10 -1 19 -20 33 -43 46
-26 14z"/>
<path d="M1715 2300 c3 -5 11 -10 16 -10 6 0 7 5 4 10 -3 6 -11 10 -16 10 -6
0 -7 -4 -4 -10z"/>
<path d="M1655 2260 c3 -5 8 -10 11 -10 2 0 4 5 4 10 0 6 -5 10 -11 10 -5 0
-7 -4 -4 -10z"/>
<path d="M991 2235 c-1 -22 174 -204 184 -193 3 3 -18 30 -47 59 -29 30 -72
77 -95 104 -33 39 -42 46 -42 30z"/>
<path d="M1180 2225 c-11 -13 -10 -14 4 -9 9 3 16 10 16 15 0 13 -6 11 -20 -6z"/>
<path d="M1680 2232 c0 -12 19 -26 26 -19 2 2 -2 10 -11 17 -9 8 -15 8 -15 2z"/>
<path d="M1730 2180 c0 -5 7 -10 15 -10 8 0 15 5 15 10 0 6 -7 10 -15 10 -8 0
-15 -4 -15 -10z"/>
<path d="M2010 2180 c0 -5 7 -10 16 -10 8 0 12 5 9 10 -3 6 -10 10 -16 10 -5
0 -9 -4 -9 -10z"/>
<path d="M547 2144 c-25 -33 -21 -51 18 -87 19 -17 35 -37 35 -44 0 -6 5 -15
11 -19 15 -9 9 16 -23 107 -24 65 -24 65 -41 43z"/>
<path d="M1165 2140 c-3 -5 1 -10 9 -10 9 0 16 5 16 10 0 6 -4 10 -9 10 -6 0
-13 -4 -16 -10z"/>
<path d="M1958 2143 c6 -2 18 -2 25 0 6 3 1 5 -13 5 -14 0 -19 -2 -12 -5z"/>
<path d="M2050 2140 c0 -5 5 -10 11 -10 5 0 7 5 4 10 -3 6 -8 10 -11 10 -2 0
-4 -4 -4 -10z"/>
<path d="M1780 2100 c0 -5 5 -10 10 -10 6 0 10 5 10 10 0 6 -4 10 -10 10 -5 0
-10 -4 -10 -10z"/>
<path d="M2015 2100 c4 -6 11 -8 16 -5 14 9 11 15 -7 15 -8 0 -12 -5 -9 -10z"/>
<path d="M1685 2050 c3 -5 8 -10 11 -10 2 0 4 5 4 10 0 6 -5 10 -11 10 -5 0
-7 -4 -4 -10z"/>
<path d="M507 2038 c-2 -7 -2 -27 1 -45 7 -46 -4 -69 -23 -53 -23 19 -28 7
-16 -37 17 -62 14 -89 -14 -107 -28 -18 -25 -36 5 -36 12 0 20 8 22 22 2 13
11 24 21 26 14 3 17 -4 17 -36 0 -26 6 -45 20 -57 11 -10 20 -29 20 -42 0 -13
6 -26 14 -29 19 -7 36 -57 29 -84 -4 -14 2 -29 17 -45 22 -23 22 -27 9 -52 -8
-16 -21 -34 -29 -41 -13 -12 -13 -13 0 -6 8 4 23 14 33 22 26 23 41 2 42 -59
1 -47 13 -68 39 -69 5 0 6 21 2 46 -3 28 -2 52 5 60 7 9 5 14 -9 18 -11 4 -23
17 -26 29 -8 29 -8 132 0 140 12 12 34 -6 34 -28 0 -15 8 -25 23 -29 35 -9 39
-8 35 21 -2 19 -10 29 -28 33 -20 5 -24 12 -22 32 3 27 -50 149 -74 169 -8 6
-14 23 -14 38 0 15 -8 31 -18 38 -10 6 -27 33 -36 59 -19 51 -56 114 -68 114
-3 0 -8 -6 -11 -12z m163 -379 c0 -15 -4 -19 -16 -15 -9 3 -18 6 -20 6 -2 0
-4 7 -4 15 0 8 9 15 20 15 14 0 20 -7 20 -21z"/>
<path d="M2120 2042 c0 -4 4 -22 9 -40 6 -20 6 -32 0 -32 -18 0 -9 -39 12 -51
18 -9 20 -17 14 -54 -5 -40 -3 -46 24 -70 17 -16 32 -41 36 -62 5 -27 13 -38
36 -46 20 -8 29 -18 29 -34 0 -13 14 -33 34 -50 36 -28 38 -43 5 -43 -25 0
-24 -16 1 -30 12 -6 31 -35 44 -63 13 -29 35 -61 50 -71 22 -14 25 -20 16 -31
-9 -11 -1 -24 39 -64 50 -50 62 -71 39 -71 -7 0 3 -16 22 -35 25 -26 42 -35
66 -35 32 0 44 -13 44 -50 0 -10 11 -25 25 -34 25 -16 25 -16 25 15 0 22 -9
39 -31 60 -30 28 -32 49 -4 49 8 0 19 -9 25 -20 15 -29 43 -27 35 3 -6 22
-131 147 -147 147 -4 0 -8 7 -8 15 0 8 5 15 10 15 22 0 8 21 -30 45 -48 30
-72 71 -49 85 11 7 7 12 -18 20 -33 12 -63 48 -63 75 0 8 5 15 10 15 6 0 10 5
10 11 0 7 -9 9 -24 5 -28 -7 -40 2 -25 20 16 19 3 61 -23 75 -31 17 -82 74
-86 96 -2 10 -11 26 -19 35 -10 11 -13 26 -9 41 4 19 0 26 -19 35 -17 8 -25
20 -25 37 0 16 -13 40 -34 60 -33 34 -46 42 -46 27z m265 -502 c3 -5 1 -10 -4
-10 -6 0 -11 5 -11 10 0 6 2 10 4 10 3 0 8 -4 11 -10z"/>
<path d="M1738 1983 c7 -3 16 -2 19 1 4 3 -2 6 -13 5 -11 0 -14 -3 -6 -6z"/>
<path d="M2050 1958 c0 -9 5 -20 11 -23 17 -11 20 0 4 21 -13 17 -14 17 -15 2z"/>
<path d="M1810 1934 c0 -8 5 -12 10 -9 6 3 10 10 10 16 0 5 -4 9 -10 9 -5 0
-10 -7 -10 -16z"/>
<path d="M2290 1861 c0 -5 5 -13 10 -16 6 -3 10 -2 10 4 0 5 -4 13 -10 16 -5
3 -10 2 -10 -4z"/>
<path d="M1022 1808 c14 -18 31 -34 38 -36 7 -3 0 12 -16 32 -16 20 -33 36
-38 36 -5 0 3 -14 16 -32z"/>
<path d="M691 1814 c0 -11 3 -14 6 -6 3 7 2 16 -1 19 -3 4 -6 -2 -5 -13z"/>
<path d="M720 1763 c0 -4 5 -15 10 -23 8 -13 10 -13 10 2 0 9 -4 20 -10 23 -5
3 -10 3 -10 -2z"/>
<path d="M1665 1740 c-3 -5 -2 -10 4 -10 5 0 13 5 16 10 3 6 2 10 -4 10 -5 0
-13 -4 -16 -10z"/>
<path d="M3740 1729 c0 -11 4 -18 10 -14 5 3 7 12 3 20 -7 21 -13 19 -13 -6z"/>
<path d="M480 1666 c0 -2 7 -7 16 -10 8 -3 12 -2 9 4 -6 10 -25 14 -25 6z"/>
<path d="M1690 1660 c0 -5 5 -10 11 -10 5 0 7 5 4 10 -3 6 -8 10 -11 10 -2 0
-4 -4 -4 -10z"/>
<path d="M341 1614 c0 -11 3 -14 6 -6 3 7 2 16 -1 19 -3 4 -6 -2 -5 -13z"/>
<path d="M1560 1620 c0 -5 7 -10 15 -10 8 0 15 5 15 10 0 6 -7 10 -15 10 -8 0
-15 -4 -15 -10z"/>
<path d="M2260 1596 c0 -8 5 -18 10 -21 6 -3 10 3 10 14 0 12 -4 21 -10 21 -5
0 -10 -6 -10 -14z"/>
<path d="M490 1582 c0 -7 9 -30 20 -52 11 -22 21 -50 21 -62 1 -17 2 -19 6 -5
2 9 -3 39 -13 65 -18 50 -34 75 -34 54z"/>
<path d="M1368 1583 c7 -3 16 -2 19 1 4 3 -2 6 -13 5 -11 0 -14 -3 -6 -6z"/>
<path d="M2440 1583 c0 -5 5 -15 10 -23 8 -12 10 -11 10 8 0 12 -4 22 -10 22
-5 0 -10 -3 -10 -7z"/>
<path d="M1530 1539 c0 -5 5 -7 10 -4 6 3 10 8 10 11 0 2 -4 4 -10 4 -5 0 -10
-5 -10 -11z"/>
<path d="M718 1534 c-11 -11 4 -38 46 -80 23 -22 46 -49 53 -60 27 -44 10 6
-25 71 -34 64 -58 86 -74 69z"/>
<path d="M1455 1500 c3 -5 8 -10 11 -10 2 0 4 5 4 10 0 6 -5 10 -11 10 -5 0
-7 -4 -4 -10z"/>
<path d="M1046 1434 c9 -64 14 -68 14 -11 0 25 -5 49 -11 52 -7 5 -8 -8 -3
-41z"/>
<path d="M1480 1471 c0 -5 5 -13 10 -16 6 -3 10 -2 10 4 0 5 -4 13 -10 16 -5
3 -10 2 -10 -4z"/>
<path d="M1448 1423 c7 -3 16 -2 19 1 4 3 -2 6 -13 5 -11 0 -14 -3 -6 -6z"/>
<path d="M1715 1400 c-16 -16 -25 -30 -19 -30 12 1 70 60 58 60 -6 0 -23 -13
-39 -30z"/>
<path d="M840 1346 c0 -8 5 -18 10 -21 6 -3 10 1 10 9 0 8 -4 18 -10 21 -5 3
-10 -1 -10 -9z"/>
<path d="M855 1271 c-3 -5 -1 -12 5 -16 5 -3 10 1 10 9 0 18 -6 21 -15 7z"/>
<path d="M704 1246 c-4 -10 -2 -22 4 -28 8 -8 13 -7 18 6 4 10 2 22 -4 28 -8
8 -13 7 -18 -6z"/>
<path d="M730 1193 c0 -4 5 -15 10 -23 8 -13 10 -13 10 2 0 9 -4 20 -10 23 -5
3 -10 3 -10 -2z"/>
<path d="M2655 1020 c3 -5 11 -10 16 -10 6 0 7 5 4 10 -3 6 -11 10 -16 10 -6
0 -7 -4 -4 -10z"/>
<path d="M2880 986 c0 -2 7 -7 16 -10 8 -3 12 -2 9 4 -6 10 -25 14 -25 6z"/>
<path d="M2715 960 c9 -31 25 -50 25 -29 0 7 -8 23 -16 34 -16 19 -16 19 -9
-5z"/>
<path d="M2920 952 c0 -12 19 -26 26 -19 2 2 -2 10 -11 17 -9 8 -15 8 -15 2z"/>
<path d="M2730 833 c0 -4 5 -15 10 -23 8 -13 10 -13 10 2 0 9 -4 20 -10 23 -5
3 -10 3 -10 -2z"/>
<path d="M2785 380 c-3 -5 -1 -10 4 -10 6 0 11 5 11 10 0 6 -2 10 -4 10 -3 0
-8 -4 -11 -10z"/>
</g>
</svg>
