<svg xmlns="http://www.w3.org/2000/svg" width="60" height="73" viewBox="0 0 60 73" fill="none">
<path d="M40.4389 0.632336C40.2456 1.00203 39.8942 1.46415 39.6306 1.6644C39.3845 1.88005 39.1737 2.09571 39.1737 2.17273C39.1737 2.4654 40.1929 1.77223 40.5971 1.20228C41.0188 0.586123 41.2824 0.447487 41.2824 0.817183C41.2824 1.10986 40.5619 2.63485 40.2808 2.92752C40.1402 3.06615 40.0699 3.34343 40.1402 3.54368C40.2632 4.0212 39.0682 5.83886 38.4356 6.10073C38.1896 6.20856 37.9084 6.3934 37.8205 6.48583C37.5394 6.80931 37.2406 7.67193 37.3461 7.90299C37.4515 8.16486 38.1193 8.05703 38.418 7.73355C38.5938 7.53329 38.6641 7.5487 38.9979 7.84137C39.2791 8.08784 39.3318 8.27268 39.244 8.68859C39.121 9.27394 39.367 9.61282 40.8783 10.9992C41.2824 11.3689 41.7393 11.8618 41.8799 12.1083C42.1084 12.478 43.2858 13.6641 44.3577 14.6345C44.4983 14.7731 44.5686 14.9272 44.4983 14.9734C44.4456 15.035 44.305 14.9734 44.1996 14.8502C44.0414 14.6499 43.9008 14.6345 43.4263 14.7885C42.6883 15.0042 42.372 14.8039 42.3017 14.0338C42.249 13.4946 42.2314 13.4792 41.4406 13.4638C40.2983 13.4176 40.2281 13.3406 40.3159 12.4163C40.4565 11.1686 40.2808 10.6141 39.6306 10.3676C38.6289 9.98252 38.295 9.62823 38.295 8.93505C38.295 8.48834 38.2072 8.25728 38.0139 8.19566C37.5218 8.04162 37.3285 8.38051 37.557 9.02747C37.68 9.39717 37.6975 9.65904 37.5745 9.78227C37.4867 9.87469 37.4515 10.0595 37.5218 10.1982C37.6272 10.46 37.3285 11.0608 36.9595 11.3073C36.8365 11.3843 36.7134 11.8772 36.6607 12.3855C36.6256 12.9093 36.3444 13.8797 36.0457 14.6037C35.7294 15.3123 35.4833 15.99 35.4833 16.0979C35.4833 16.483 35.7645 16.3289 36.0632 15.7744C36.2214 15.4817 36.485 15.2353 36.6256 15.2353C36.854 15.2353 36.8716 15.3893 36.7837 16.1133C36.7134 16.6062 36.5904 17.1299 36.5026 17.2686C36.239 17.7461 36.5201 17.5613 36.8892 17.0375C37.0825 16.7757 37.2406 16.3906 37.2406 16.1903C37.2406 15.9746 37.3988 15.7744 37.68 15.6666C38.1896 15.4663 38.2247 15.3431 37.8557 15.0812C37.557 14.8656 37.5394 14.7731 37.7678 14.4651C37.8908 14.2802 37.9787 14.2956 38.3126 14.5421C38.6992 14.8502 38.6992 14.8502 38.5762 14.5421C38.4883 14.3726 38.3829 14.0954 38.3302 13.9259C38.295 13.7565 38.1193 13.4946 37.9787 13.3406C37.8381 13.2019 37.7151 12.8631 37.7151 12.6166C37.7151 11.4613 38.6992 11.7694 38.9979 13.0017C39.1034 13.4176 39.244 13.8489 39.3143 13.9413C39.5603 14.2802 40.1753 14.4497 40.8783 14.3572C41.4054 14.2956 41.5987 14.3264 41.6866 14.5113C41.8448 14.8964 41.3879 15.1428 40.931 14.8964C40.6147 14.7115 40.5268 14.7423 40.2281 15.0812C40.0347 15.2969 39.8766 15.5433 39.8766 15.6358C39.8766 15.9592 40.4916 16.2981 40.8958 16.2057C41.1946 16.1441 41.3176 16.1903 41.3879 16.4214C41.5285 16.8835 42.5477 17.2994 43.2858 17.1762C43.6548 17.1145 43.9184 16.9759 43.9184 16.8527C43.9184 16.7448 43.9887 16.4676 44.0941 16.2365C44.2523 15.8822 44.305 15.8668 44.6565 16.0209C44.9376 16.1595 45.0606 16.1595 45.1134 16.0209C45.2012 15.7744 45.7636 15.8052 46.0272 16.0979C46.2205 16.2981 46.2029 16.3443 45.8866 16.4214C45.6757 16.4676 45.5527 16.56 45.6054 16.637C45.7811 16.8989 46.4138 16.7757 46.7476 16.4214L47.0815 16.0825L47.5209 16.5446C47.7669 16.7911 47.9602 17.0991 47.9602 17.207C47.9602 17.3148 48.1183 17.515 48.3292 17.6691C48.5225 17.8077 48.9794 18.3469 49.3133 18.8552C49.6648 19.3635 50.2095 20.0721 50.5258 20.4418C50.8422 20.8115 51.1585 21.3044 51.2112 21.5509C51.2815 21.8127 51.3869 22.0438 51.4748 22.09C51.7032 22.2132 51.3869 21.2274 50.9827 20.5188C50.7719 20.1645 50.5961 19.8256 50.5961 19.764C50.5961 19.7024 50.8773 19.7024 51.2112 19.7486L51.8087 19.841L51.2288 19.3789C50.8949 19.1325 50.5434 18.7011 50.4028 18.4393C50.2798 18.162 49.9635 17.6999 49.6823 17.4226C49.4187 17.1453 49.1903 16.7602 49.1903 16.56C49.1903 16.1287 48.751 15.1428 48.4874 15.0042C48.3995 14.958 48.3116 14.8502 48.3116 14.7577C48.3116 14.4497 48.6455 14.6499 49.12 15.2661C49.4012 15.6358 49.8053 16.1287 50.0162 16.3597C50.2447 16.6062 50.4204 16.9913 50.4204 17.2378C50.4204 17.4688 50.5258 17.6999 50.6664 17.7461C50.807 17.7923 51.053 18.085 51.2112 18.3777C51.5099 18.9322 52.1777 19.1941 51.9141 18.6549C51.8438 18.5163 51.6681 18.1158 51.5275 17.7769C51.3869 17.438 51.176 17.0529 51.0355 16.9297C50.9124 16.8065 50.7543 16.4522 50.684 16.1595C50.6137 15.8514 50.315 15.4201 49.9811 15.1428C49.6472 14.8656 49.3133 14.388 49.1903 14.0183C49.0849 13.6795 48.8916 13.3868 48.7685 13.3868C48.628 13.3868 48.4347 13.279 48.2941 13.1403C48.1711 13.0171 47.7669 12.7706 47.3978 12.6012C47.0288 12.4317 46.7301 12.2007 46.7301 12.0775C46.7301 11.9542 46.6071 11.8464 46.4665 11.8464C46.3259 11.8464 46.2029 11.9542 46.2029 12.0775C46.2029 12.4471 46.6774 13.3406 47.0288 13.6795C47.5384 14.157 48.048 15.5279 47.802 15.7436C47.6614 15.8668 47.6087 15.8668 47.6087 15.7436C47.6087 15.6512 47.2924 15.2199 46.8882 14.7731C46.5016 14.3418 46.0447 13.6487 45.8866 13.2482C45.3242 11.8772 44.6037 11.0146 42.5828 9.36636C41.8975 8.81182 41.4582 8.78101 41.4582 9.30475C41.4582 9.81308 41.177 9.79767 40.5971 9.24313C40.1402 8.81182 40.1226 8.76561 40.3686 8.3497C40.7201 7.76435 40.6674 7.79516 41.1419 8.01082C41.8096 8.3343 42.741 8.61157 43.233 8.61157C43.4966 8.61157 43.7427 8.7194 43.8129 8.84263C43.8657 8.96586 44.5686 9.45879 45.3769 9.9209C47.0288 10.8605 47.187 10.9838 47.3451 11.5845C47.4857 12.0466 47.7845 12.1545 47.7845 11.7232C47.7845 11.1994 47.0991 10.4908 45.8866 9.79767C45.2188 9.39717 44.5686 8.96586 44.4456 8.82722C44.0941 8.47293 43.3033 8.14945 42.7761 8.14945C42.3192 8.14945 40.5795 6.88633 40.5795 6.56285C40.5795 6.47042 40.4038 6.23936 40.1929 6.03911L39.8239 5.68482L40.2808 4.72978C40.7904 3.68231 40.8607 3.37423 40.5795 3.37423C40.4916 3.37423 40.4038 3.26641 40.4038 3.14318C40.4038 3.01994 40.4565 2.91212 40.5444 2.91212C40.8431 2.91212 41.4757 1.35632 41.423 0.709354C41.3527 -0.199476 40.8958 -0.245689 40.4389 0.632336ZM40.4038 7.37925C40.4038 7.45627 40.3335 7.53329 40.2281 7.53329C40.1402 7.53329 40.0523 7.45627 40.0523 7.37925C40.0523 7.28683 40.1402 7.22521 40.2281 7.22521C40.3335 7.22521 40.4038 7.28683 40.4038 7.37925ZM42.2665 10.1057C42.3192 10.2598 42.5301 10.6911 42.741 11.0762C42.9519 11.4613 43.1452 11.831 43.1803 11.8926C43.233 11.9696 43.0925 11.9542 42.8816 11.8618C42.4774 11.6615 41.6339 10.4908 41.6339 10.1057C41.6339 9.76686 42.1435 9.76686 42.2665 10.1057ZM44.3401 12.709C44.4456 12.8631 44.7267 13.2173 44.9728 13.4792C45.2188 13.7411 45.623 14.2648 45.8866 14.6345C46.1502 15.0042 46.5016 15.4663 46.6598 15.6512C46.9409 15.99 46.9234 16.0055 46.5895 16.0055C46.2205 16.0055 45.3242 15.0966 45.3242 14.7115C45.3242 14.4651 45.2012 14.3418 44.1644 13.5562C43.7954 13.2636 43.5669 13.0017 43.6899 12.9709C43.7954 12.9401 43.8305 12.7706 43.7778 12.5858C43.6724 12.1853 44.0765 12.2623 44.3401 12.709ZM37.4164 13.7719C37.4164 13.8951 37.3285 14.0029 37.2406 14.0029C37.1352 14.0029 36.9595 14.1878 36.854 14.4188C36.6959 14.7577 36.6432 14.7885 36.5904 14.5883C36.5201 14.3264 37.0298 13.5562 37.2934 13.5408C37.3637 13.5408 37.4164 13.6487 37.4164 13.7719ZM48.4874 16.5446C48.6104 16.6678 48.628 16.7757 48.5225 16.7757C48.4347 16.7757 48.2589 16.6678 48.1359 16.5446C48.0129 16.4214 47.9953 16.3135 48.1008 16.3135C48.1886 16.3135 48.3644 16.4214 48.4874 16.5446Z" fill="#9d8162"/>
<path d="M44.0766 2.09572C43.9711 2.4192 43.6548 2.95834 43.3912 3.29722C43.1276 3.63611 42.8465 4.19065 42.7586 4.52954C42.6005 5.06868 42.5302 5.1457 42.0381 5.19191C40.9486 5.28433 40.1402 6.45503 41.177 6.45503C41.4406 6.45503 41.6164 6.30099 41.7745 5.9467C41.9678 5.51539 42.0205 5.48458 42.1787 5.73104C42.3017 5.9313 42.3017 6.14695 42.1787 6.48584C41.9327 7.10199 41.8975 7.02497 42.5126 7.36386C42.8113 7.5179 43.2331 7.61032 43.4615 7.57952C43.8306 7.5179 43.9009 7.36386 44.1469 6.02372C44.4808 4.26767 44.6565 1.52577 44.4456 1.52577C44.3578 1.52577 44.1996 1.78764 44.0766 2.09572ZM43.8657 6.17776C43.813 6.30099 43.7603 6.25478 43.7603 6.08534C43.7427 5.91589 43.7954 5.82347 43.8481 5.88508C43.9009 5.9313 43.9184 6.06993 43.8657 6.17776Z" fill="#9d8162"/>
<path d="M37.7327 3.35886C37.4164 3.58992 36.8189 3.97502 36.4147 4.19067C36.0105 4.42173 35.5009 4.82223 35.2725 5.0841C34.9386 5.4846 34.7804 5.53081 34.3411 5.4692C33.9897 5.40758 33.6558 5.4692 33.4097 5.62324C33.1813 5.76187 32.8826 5.82349 32.742 5.77728C32.6014 5.73106 32.0742 5.82349 31.5646 5.99293C31.055 6.16237 30.475 6.30101 30.2466 6.30101C29.6843 6.30101 27.8567 6.84015 26.609 7.37928C25.3964 7.90302 25.6425 7.98004 27.0483 7.53332C28.05 7.20984 29.9479 6.80934 31.178 6.6553C31.5646 6.60909 32.0215 6.47045 32.1972 6.33182C32.4608 6.11616 32.5662 6.17778 32.5135 6.48586C32.5135 6.56288 32.742 6.60909 33.0407 6.60909C33.4273 6.60909 33.603 6.68611 33.6733 6.91717C33.7436 7.13282 33.9194 7.22524 34.2708 7.22524C34.552 7.22524 34.8507 7.34848 34.9562 7.48711C35.0968 7.70277 35.1143 7.62575 35.044 7.13282C34.8507 6.03914 35.4834 5.19193 37.68 3.57451C38.172 3.22022 38.5059 2.92755 38.4356 2.92755C38.3653 2.91215 38.049 3.1124 37.7327 3.35886Z" fill="#9d8162"/>
<path d="M36.6256 8.61159C36.5553 8.79643 36.5377 8.98128 36.5905 9.02749C36.6432 9.0583 36.7311 8.95047 36.8013 8.76563C36.8716 8.58078 36.8892 8.39593 36.8365 8.34972C36.7838 8.31891 36.6959 8.42674 36.6256 8.61159Z" fill="#9d8162"/>
<path d="M24.4124 8.68861C24.1312 8.98128 24.3948 8.98128 24.8342 8.68861C25.1153 8.50376 25.1329 8.45755 24.9044 8.45755C24.7639 8.45755 24.5354 8.56537 24.4124 8.68861Z" fill="#9d8162"/>
<path d="M20.1949 11.6462C19.861 11.9234 18.9999 12.632 18.297 13.202C17.5941 13.7719 16.6276 14.7578 16.1531 15.4047C15.2217 16.6832 14.8175 16.9759 13.8335 17.1454C13.4117 17.207 13.0251 17.4226 12.7088 17.7461C12.4628 18.0234 12.0059 18.3469 11.7071 18.4701C11.3732 18.6087 11.1096 18.8706 11.0393 19.1479C10.9515 19.3943 10.6352 19.841 10.3013 20.1491C9.98496 20.4572 9.49292 21.1504 9.21175 21.7049C8.93058 22.2595 8.5264 22.9064 8.31552 23.1683C7.40173 24.2928 7.12056 25.2786 7.57746 25.6791C7.73561 25.8178 7.73561 25.941 7.55988 26.2183C7.40173 26.4647 7.36658 27.0809 7.43687 28.344C7.59503 31.1937 7.59503 31.2862 7.45444 32.2258C7.33143 33.0114 7.27871 33.1192 6.94483 33.073C6.52307 33.0268 6.52307 33.073 6.73395 29.0988C6.85696 26.7882 6.83939 26.588 6.59337 26.8498C6.43521 27.0193 6.3122 27.312 6.3122 27.5122C6.3122 27.6971 6.08375 28.0821 5.82015 28.3594C5.55656 28.6367 5.18752 29.2528 5.01179 29.715C4.81849 30.1771 4.59004 30.6546 4.4846 30.7778C4.37917 30.9011 4.27373 31.1783 4.25615 31.394C4.22101 31.6096 4.16829 32.1796 4.13314 32.6417C4.08042 33.1038 4.01013 33.9202 3.95741 34.4594C3.90469 34.9831 3.93984 35.7379 4.02771 36.123C4.13314 36.5235 4.15072 37.0472 4.08042 37.3091C3.85197 38.0793 3.99256 38.6492 4.46703 38.8341C4.69548 38.9265 5.01179 39.2808 5.16995 39.6351C5.34568 39.974 5.69714 40.6826 5.97831 41.1909C6.83939 42.8391 8.59669 47.1368 8.59669 47.5835C8.57912 48.0302 7.71804 46.9674 7.71804 46.5052C7.71804 46.2434 7.38415 45.581 6.90968 44.9032C6.47036 44.2717 6.08375 43.5785 6.06618 43.3628C6.06618 43.1472 5.99588 42.9623 5.92559 42.9623C5.83773 42.9623 5.78501 42.8391 5.78501 42.6851C5.78501 42.3154 5.27539 41.5452 4.60761 40.8982C4.2913 40.5901 4.02771 40.2821 4.02771 40.1742C4.02771 39.7583 3.58838 40.1896 3.53566 40.6672C3.4478 41.4065 3.8344 42.3462 4.44946 42.8545C4.85364 43.1934 4.92393 43.3166 4.73063 43.4707C4.57247 43.6093 4.4846 43.6093 4.43188 43.4861C4.39674 43.3937 4.25615 43.178 4.11557 43.024C3.88712 42.7775 3.8344 42.7621 3.69382 42.9623C3.57081 43.101 3.57081 43.2396 3.67624 43.332C3.78168 43.4245 3.85197 43.8558 3.85197 44.3025C3.85197 44.7492 3.92227 45.1189 3.99256 45.1189C4.15072 45.1189 5.60928 47.1676 5.60928 47.3833C5.60928 47.4449 5.87287 47.7992 6.20676 48.1535C6.52307 48.5232 6.9624 49.2163 7.17328 49.6939C7.40173 50.1868 7.71804 50.9416 7.91134 51.3575C8.08707 51.7888 8.24523 52.2355 8.24523 52.3433C8.24523 52.4666 8.40339 52.8363 8.57912 53.1905C8.77242 53.5448 8.96572 54.007 9.03602 54.238C9.08874 54.4845 9.19417 54.6693 9.28204 54.6693C9.3699 54.6693 9.3699 54.4075 9.26447 54.084C9.1766 53.7759 9.07116 53.3446 9.05359 53.1289C8.9833 52.6052 8.45611 51.1264 8.2628 50.9108C8.19251 50.8183 7.98164 50.387 7.82348 49.9557C7.66532 49.5244 7.26114 48.7696 6.92725 48.2767C6.59337 47.7838 6.3122 47.3062 6.3122 47.1984C6.3122 46.9366 5.73229 45.8429 5.16995 45.0419C4.67791 44.3487 4.62519 44.0406 4.97665 44.0406C5.38083 44.0406 6.22433 45.0111 6.92725 46.2896C7.27871 46.9674 7.84105 47.8916 8.15737 48.3537C8.78999 49.3088 9.38748 50.7259 9.21175 50.957C9.15903 51.0494 9.22932 51.3267 9.38748 51.5885C9.54563 51.8504 9.75651 52.713 9.84438 53.4832C9.94981 54.2534 10.0904 55.0082 10.1783 55.1314C10.2837 55.2855 10.231 55.4549 10.0553 55.6244C9.80923 55.8708 9.80923 55.9633 10.1607 56.6564C10.354 57.0723 10.5297 57.6577 10.5297 57.9504C10.5297 58.243 10.7055 58.8284 10.8988 59.2597L11.2678 60.0607L11.6017 59.691C11.9531 59.2905 12.041 58.9824 11.7774 58.9824C11.6895 58.9824 11.5841 58.8592 11.5314 58.7052C11.4962 58.5665 11.3908 58.3201 11.3205 58.166C11.2326 57.9812 11.2854 57.9042 11.4611 57.9042C11.7423 57.9042 11.6895 57.3958 11.3908 57.0415C11.1624 56.7951 11.2151 54.0224 11.4435 54.1456C11.5665 54.2226 11.6017 54.1148 11.5138 53.8067C11.3205 53.0981 11.0745 51.8966 10.9515 50.9724C10.8812 50.5103 10.7582 49.9865 10.6527 49.8171C10.477 49.5244 10.4946 49.5244 10.8285 49.7863C11.3557 50.1868 11.4259 50.1098 11.1448 49.4166C10.8285 48.6464 10.8109 48.1843 11.0921 47.6759C11.2502 47.3525 11.2326 47.2292 11.0042 46.9982C10.8285 46.8441 10.7055 46.6131 10.7055 46.4898C10.723 46.2588 11.5841 47.0906 11.5841 47.3217C11.5841 47.3987 11.7423 47.6297 11.9356 47.8454C12.1992 48.1535 12.2343 48.2767 12.0586 48.5078C11.8126 48.8774 11.9707 49.0315 12.4628 48.8929C12.7264 48.8158 12.7966 48.708 12.7088 48.5386C12.6385 48.3845 12.3749 47.753 12.1113 47.1214C11.8477 46.4898 11.4787 45.6734 11.2678 45.3191C10.846 44.6106 10.7582 43.7942 11.0745 43.7017C11.2151 43.6555 11.1624 43.3628 10.8988 42.7621C10.7055 42.2692 10.5297 41.73 10.5297 41.576C10.5297 41.0677 11.1096 41.2371 11.6193 41.8841C12.1289 42.531 12.4628 42.6697 12.4628 42.2384C12.4628 42.0997 12.0761 41.6684 11.6017 41.2833C10.7406 40.5747 10.6879 40.4515 10.0201 38.2487C9.91467 37.8945 9.87952 37.4015 9.93224 37.1551C10.0025 36.8162 9.96739 36.6621 9.75651 36.6005C9.59835 36.5389 9.47534 36.3541 9.47534 36.1846C9.47534 35.9998 9.40505 35.7379 9.31718 35.5993C9.10631 35.2142 8.93058 33.073 9.14145 33.1808C9.22932 33.2425 9.29961 33.4735 9.29961 33.72C9.29961 33.9664 9.42262 34.2745 9.58078 34.4132C9.73894 34.5518 9.94981 34.9523 10.0377 35.3066C10.1255 35.6609 10.3013 36.0614 10.4419 36.1846C10.6703 36.4003 11.1096 37.3091 11.7423 38.8033C12.1992 39.9124 12.3222 40.0048 12.7791 39.7429C12.9724 39.6505 12.9021 39.3424 12.4628 38.2487C12.164 37.4939 11.8126 36.7854 11.6895 36.6467C11.1448 36.0768 10.7055 35.2758 10.8109 35.0293C10.9163 34.7983 10.969 34.7983 11.1624 35.1217C11.2854 35.322 11.3908 35.6147 11.4084 35.7687C11.4084 35.9073 11.6193 36.1846 11.8653 36.3849C12.1113 36.5697 12.6209 37.2475 12.9899 37.8945C13.4644 38.7109 13.7983 39.096 14.0619 39.1576C14.7297 39.3116 14.7648 39.1268 14.1498 38.372C13.2535 37.2937 12.2343 35.4606 12.0761 34.6596C11.7247 32.7649 11.7071 32.6109 11.9356 32.4877C12.3046 32.2874 12.6209 32.4723 12.9899 33.0884C13.3063 33.5968 13.3238 33.6122 13.3414 33.2579C13.3414 33.0422 13.236 32.7341 13.0954 32.5647C12.8845 32.2874 12.7791 31.7945 12.6033 30.2541C12.5506 29.8228 12.5858 29.792 13.0602 29.8382C13.3766 29.8844 13.5171 29.8382 13.4468 29.7304C13.3766 29.6379 13.1657 29.5609 12.9724 29.5609C12.6209 29.5609 12.5682 29.4993 12.3925 28.7445C12.3046 28.4364 12.3573 28.2978 12.5858 28.2208C12.7439 28.1592 12.9197 28.2054 12.9548 28.2978C12.9899 28.4056 13.1305 28.4827 13.2711 28.4827C13.4644 28.4827 13.4293 28.3748 13.1305 28.0205C12.7791 27.5892 12.7264 27.5738 12.4276 27.8203C12.0586 28.113 12.0761 28.1284 11.6368 27.3274C11.3732 26.8652 11.2502 26.2337 11.1624 24.7857C11.0745 23.3994 10.969 22.7986 10.7757 22.6292C10.3891 22.2749 9.94981 22.6138 9.66865 23.4918C9.38748 24.3852 9.35233 24.4314 9.10631 24.2158C8.94815 24.0771 9.05359 23.7845 9.4402 23.0605C10.2486 21.6125 10.9339 20.5496 11.0921 20.5034C11.1624 20.4726 11.1448 20.3032 11.0393 20.1491C10.8812 19.8873 10.9339 19.764 11.3029 19.4714C11.549 19.2711 11.7598 19.0246 11.7598 18.9322C11.7598 18.732 12.2343 18.732 12.3749 18.9476C12.4452 19.04 12.3222 19.2711 12.1113 19.4714C11.9004 19.6716 11.7774 19.9027 11.8301 19.9951C11.9004 20.0875 11.795 20.5804 11.5841 21.1042C11.1975 22.1516 11.0921 24.2312 11.4259 24.416C11.7423 24.5855 12.041 24.2004 11.8301 23.9077C11.6895 23.7074 11.7774 23.461 12.2167 22.814C12.533 22.3519 12.8494 21.7665 12.9197 21.5047C13.0251 21.0888 13.5874 20.0105 14.4485 18.5471C14.5539 18.3777 14.7472 18.0234 14.9054 17.7769C15.4853 16.7449 16.9087 15.1274 18.5606 13.6179C20.8099 11.5383 21.2493 11.0762 21.0032 11.0916C20.8978 11.107 20.5288 11.3535 20.1949 11.6462ZM10.0904 25.6175C10.2134 26.896 10.108 27.8665 9.8268 27.8665C9.66865 27.8665 9.47534 27.3274 9.47534 26.819C9.47534 26.6342 9.38748 26.3415 9.26447 26.1875C9.10631 25.9564 9.10631 25.7408 9.29961 25.217C9.77408 23.9077 9.93224 24.0001 10.0904 25.6175ZM8.7197 28.5751C8.56154 28.7137 8.22766 28.4827 8.35067 28.2978C8.42096 28.2054 8.5264 28.2054 8.64941 28.3132C8.75485 28.4056 8.78999 28.5135 8.7197 28.5751ZM11.1799 28.6675C11.1272 28.7907 11.0745 28.7445 11.0745 28.5751C11.0569 28.4056 11.1096 28.3132 11.1624 28.3748C11.2151 28.421 11.2326 28.5597 11.1799 28.6675ZM11.4787 29.4377C11.6368 29.9922 11.6017 30.1771 11.3381 30.1771C10.969 30.1771 10.8285 29.9152 10.9515 29.4685C11.0921 29.0064 11.3381 28.991 11.4787 29.4377ZM6.06618 31.3016C6.08375 32.8728 6.13647 33.3195 6.38249 33.643C6.61094 33.951 6.66366 34.2129 6.57579 34.6288C6.43521 35.3066 6.43521 35.3528 6.7691 35.2912C6.90968 35.2604 7.08541 35.4144 7.17328 35.6301C7.27871 35.8303 7.4193 36.046 7.50716 36.0922C7.77076 36.2308 8.77242 38.1717 9.03602 39.0343C9.15903 39.4502 9.31718 40.1434 9.38748 40.5747L9.49292 41.3449L9.10631 40.7442C8.91301 40.4207 8.50883 39.8662 8.22766 39.5273C7.94649 39.1884 7.71804 38.7879 7.71804 38.6492C7.71804 38.5106 7.36658 37.8174 6.92725 37.1089C6.48793 36.4003 6.13647 35.7841 6.13647 35.7225C6.13647 35.6609 5.97831 35.4914 5.80258 35.3528C5.60928 35.1988 5.3984 34.8753 5.34568 34.6442C5.29296 34.3978 5.13481 34.1667 5.01179 34.1359C4.71305 34.0281 4.85364 32.349 5.18752 32.0102C5.34568 31.8561 5.43355 31.3786 5.43355 30.6084C5.43355 29.4531 5.52141 29.2066 5.8553 29.2991C5.97831 29.3299 6.0486 30.0693 6.06618 31.3016ZM9.15903 31.0551C8.9833 31.4556 8.9833 31.4248 8.96572 30.7162C8.96572 30.0693 9.00087 30.0076 9.15903 30.2849C9.28204 30.516 9.28204 30.747 9.15903 31.0551ZM11.6017 31.7637C11.4787 31.8715 11.3908 31.8407 11.3205 31.6713C11.2678 31.5326 11.1975 31.3016 11.1448 31.1629C10.969 30.67 11.2854 30.6238 11.5314 31.1013C11.6895 31.4402 11.7071 31.6713 11.6017 31.7637ZM9.93224 31.9639L10.0201 32.5647L9.75651 31.9485C9.4402 31.2246 9.40505 30.9781 9.65107 31.1937C9.75651 31.2862 9.87952 31.6251 9.93224 31.9639ZM8.5264 32.1334C8.40339 32.2412 8.0695 32.0256 8.0695 31.8407C8.0695 31.7483 8.17494 31.7483 8.3331 31.8715C8.49125 31.9793 8.56154 32.1026 8.5264 32.1334ZM10.6527 34.0743C10.5473 34.3053 10.0025 33.2117 10.0201 32.842C10.0201 32.6879 10.1958 32.8574 10.3716 33.2271C10.5649 33.5968 10.6879 33.9819 10.6527 34.0743ZM7.71804 33.8894C7.71804 34.0589 7.64775 34.1667 7.54231 34.1051C7.45444 34.0589 7.4193 33.9202 7.48959 33.797C7.6126 33.4735 7.71804 33.5043 7.71804 33.8894ZM5.96074 36.7392C5.96074 36.8778 5.87287 36.9548 5.74986 36.924C5.43355 36.8316 5.38083 36.4927 5.67957 36.4927C5.83773 36.4927 5.96074 36.6005 5.96074 36.7392ZM6.38249 37.648C6.43521 37.7712 6.40006 37.879 6.3122 37.879C6.20676 37.879 6.13647 37.7712 6.13647 37.648C6.13647 37.5248 6.17161 37.4169 6.20676 37.4169C6.24191 37.4169 6.3122 37.5248 6.38249 37.648ZM7.27871 40.3591C7.4193 40.7442 7.75319 41.2987 7.99921 41.5914C8.50883 42.1921 9.05359 43.1626 9.1766 43.7325C9.22932 43.9482 9.40505 44.5181 9.56321 45.0111C9.72136 45.504 9.79166 46.0431 9.73894 46.1972C9.68622 46.3512 9.72136 46.5206 9.8268 46.5823C10.0201 46.6901 10.0728 48.1997 9.86195 48.1997C9.6335 48.1997 9.21175 47.5373 9.08874 46.9674C8.50883 44.3795 8.31552 43.7325 7.92892 43.1934C7.68289 42.8545 7.29629 42.0227 7.06784 41.3603C6.85696 40.6826 6.5055 39.9894 6.32977 39.8199C5.99588 39.5119 5.43355 38.5106 5.43355 38.2333C5.43355 37.9099 7.03269 39.7583 7.27871 40.3591ZM6.55822 40.7288C6.61094 40.8674 6.55822 40.9598 6.40006 40.9598C6.25948 40.9598 6.13647 40.852 6.13647 40.7288C6.13647 40.6055 6.20676 40.4977 6.29462 40.4977C6.38249 40.4977 6.48793 40.6055 6.55822 40.7288ZM5.11723 42.377C4.95908 42.5156 4.90636 42.4848 4.90636 42.1921C4.90636 41.8995 4.95908 41.8687 5.11723 42.0073C5.27539 42.1459 5.27539 42.2384 5.11723 42.377Z" fill="#9d8162"/>
<path d="M28.8232 14.9734C28.4542 15.4355 27.9094 15.9747 27.6107 16.1749C27.1362 16.5292 26.9956 16.8065 26.7496 17.9002C26.6969 18.1466 26.5387 18.3777 26.3981 18.4239C26.2751 18.4701 26.0291 18.732 25.8885 18.9938C25.7304 19.2557 25.4316 19.5946 25.2207 19.7486C24.8693 20.0105 24.8693 20.0259 25.168 20.2261C25.4843 20.4418 25.4843 20.4572 25.1505 20.6112C24.7287 20.8115 24.553 21.5509 24.5881 23.1067C24.6057 24.0463 24.553 24.3082 24.3421 24.3698C24.1839 24.4314 24.0609 24.5855 24.0609 24.7395C24.0609 24.8935 23.9379 25.1554 23.7973 25.3094C23.6567 25.4789 23.5337 25.7716 23.5337 25.9564C23.5337 26.1567 23.3931 26.3261 23.1823 26.3723C22.9011 26.4339 22.8308 26.588 22.8308 27.1425C22.8308 27.62 22.7254 27.8973 22.4794 28.0976C22.286 28.2516 22.1279 28.4981 22.1279 28.6521C22.1279 29.0834 21.2141 30.5006 20.5815 31.0705C20.1421 31.4556 20.0191 31.6713 20.0894 31.9331C20.1421 32.1334 20.0367 32.5339 19.8258 32.8882C19.5974 33.2887 19.4919 33.72 19.5271 34.1821C19.5798 34.7983 19.5447 34.8753 19.1756 34.9215C18.7012 34.9831 18.4551 35.3836 18.8066 35.5685C19.1405 35.7687 18.0685 37.5248 17.0844 38.372C16.2058 39.1268 16.1531 39.2654 16.7681 39.2654C17.2602 39.2654 17.348 39.5889 16.9438 39.8816C16.6451 40.0972 16.5924 40.4977 16.856 40.4977C17.1372 40.4977 17.0669 40.9906 16.733 41.2987C16.487 41.5452 16.4694 41.6376 16.6627 41.8995C16.8384 42.1613 16.8384 42.2846 16.61 42.5772C16.4518 42.7775 16.1882 42.9777 15.9949 43.0394C15.6962 43.1164 15.3623 43.5477 15.5029 43.6709C15.538 43.7017 15.8192 43.6555 16.1531 43.5785C16.487 43.5015 16.7857 43.4553 16.8208 43.5015C16.9966 43.6401 16.6627 44.056 16.2761 44.1793C15.8016 44.3487 15.5556 45.0265 15.8192 45.4578C15.907 45.5964 15.907 45.8737 15.8192 46.0739C15.7489 46.2742 15.6962 46.8287 15.7137 47.3217C15.7313 47.984 15.8367 48.2921 16.1179 48.554C16.3991 48.8158 16.5045 49.1393 16.5572 49.8787C16.61 50.5873 16.6978 50.8954 16.9087 51.0032C17.0844 51.0802 17.2074 51.3267 17.2074 51.5885C17.2074 51.8504 17.2777 52.0507 17.3656 52.0507C17.7346 52.0507 18.6133 53.0673 18.6133 53.4832C18.6133 53.8837 19.0175 54.2072 19.2459 54.007C19.3162 53.9607 19.2986 53.5756 19.2283 53.1597C19.1405 52.559 19.0175 52.3587 18.6836 52.2201C18.1564 52.0044 18.1388 51.7734 18.6836 51.5885C19.035 51.4807 19.1053 51.3113 19.2283 50.4332C19.2986 49.8633 19.3162 49.3858 19.2811 49.3704C19.2635 49.355 18.9999 49.2163 18.7363 49.0623C18.3497 48.862 18.2794 48.7542 18.4376 48.6002C18.543 48.4769 18.5957 48.1535 18.5781 47.8762C18.5254 47.4295 18.5957 47.3525 18.9296 47.3062C19.2986 47.26 19.3162 47.3062 19.3162 48.1843C19.3162 49.1547 19.4744 49.3396 19.8785 48.8466C20.0016 48.6926 20.2476 48.5232 20.4233 48.4615C20.8275 48.3383 20.8099 48.0918 20.3706 47.8916C19.8434 47.6451 19.861 46.305 20.4057 45.9815C20.722 45.7813 20.7396 45.7042 20.5463 45.5194C20.2827 45.2267 20.0191 45.3345 20.0191 45.7505C20.0191 45.9353 19.8961 46.0431 19.6677 46.0431C19.4744 46.0431 19.3162 46.1356 19.3162 46.2588C19.3162 46.5669 19.035 46.7055 18.5957 46.5823C18.3145 46.5052 18.2794 46.4282 18.4551 46.2588C18.5606 46.1356 18.7539 46.0431 18.8769 46.0431C19.0175 46.0431 19.1581 45.8121 19.2283 45.5348C19.2986 45.2729 19.5095 44.934 19.7028 44.7954C20.0894 44.5335 20.0016 44.1947 19.5622 44.1947C19.4216 44.1947 19.3162 44.056 19.3162 43.8866C19.3162 43.7171 19.4216 43.5785 19.5622 43.5785C19.8434 43.5785 20.0191 43.255 20.0191 42.7313C20.0191 42.5156 20.1421 42.3462 20.3706 42.3C20.8099 42.2075 20.8275 41.9149 20.4233 41.7762C19.6149 41.5144 19.8083 40.9598 20.6693 41.006C21.3723 41.0369 21.7061 40.6826 21.0911 40.5439C20.7923 40.4823 20.722 40.3437 20.722 39.8662C20.722 39.5273 20.7923 39.2654 20.8978 39.2654C20.9856 39.2654 21.1965 39.1268 21.3723 38.9727C21.548 38.8033 21.9346 38.6492 22.2158 38.6184C22.6902 38.5722 22.7429 38.5106 22.7957 38.0177C22.8308 37.6018 22.9538 37.4323 23.1998 37.3707C23.3931 37.3245 23.5337 37.1551 23.5337 36.9702C23.5337 36.7854 23.6919 36.3695 23.8852 36.0306C24.0785 35.6917 24.2367 35.322 24.2367 35.1834C24.2367 35.0601 24.3421 34.9523 24.4827 34.9523C24.8693 34.9523 24.9747 34.4748 24.6584 34.1667C24.3772 33.8894 24.3772 33.874 24.6936 33.874C25.0977 33.8586 25.6425 33.5197 25.6425 33.2733C25.6425 33.0268 26.8375 30.824 27.0483 30.7162C27.3119 30.5622 27.4174 30.9165 27.1889 31.2554C27.0132 31.4864 27.0132 31.6251 27.1714 31.8407C27.2768 32.0102 27.3295 32.4261 27.2768 32.8266C27.2241 33.2579 27.2592 33.5659 27.3822 33.6276C27.4877 33.6892 27.5755 34.1667 27.5755 34.7366C27.5755 35.6147 27.6107 35.7225 27.927 35.7225C28.2609 35.7225 28.2785 35.6147 28.296 34.2129C28.3136 31.3632 28.4542 29.3299 28.6299 28.7137C29.0692 27.3274 29.2098 27.0039 29.5613 26.665C30.0182 26.2337 30.4751 26.2337 31.1604 26.6804C31.547 26.9423 32.3027 27.1425 33.6909 27.3736C35.8173 27.7279 36.7311 28.0667 37.4164 28.7137C38.0139 29.2991 40.8607 30.9165 42.8816 31.8253C43.7954 32.2412 45.1837 32.9806 45.9921 33.4735C47.5209 34.4132 47.6791 34.6134 48.3117 36.3387C48.751 37.5248 49.1903 37.725 51.0882 37.6172C52.2305 37.5556 52.6347 37.6018 52.9686 37.7866C53.5133 38.0947 53.4254 38.1101 54.1987 37.571C54.6731 37.2321 55.0422 37.1089 55.5518 37.1089C56.0965 37.1089 56.3777 36.9856 57.0103 36.4773C57.643 35.969 57.8011 35.7379 57.8011 35.322C57.8011 35.0447 58.0647 34.3207 58.3986 33.72C59.2245 32.2258 59.1718 31.6405 58.0472 30.0847C57.5727 29.4531 56.9049 28.6367 56.571 28.267C56.2371 27.9127 55.6748 27.2503 55.3585 26.7882C55.0246 26.3261 54.4447 25.6483 54.0756 25.294C53.7066 24.9243 53.2321 24.3236 53.0213 23.9385C52.8104 23.5534 52.5644 23.2453 52.4941 23.2453C52.2832 23.2453 53.3903 24.9397 53.9526 25.4789C54.2162 25.7253 54.7259 26.4031 55.0773 26.9731C55.4288 27.5584 55.7802 28.0205 55.8505 28.0205C56.0087 28.0205 57.6254 30.5468 57.6254 30.7778C57.6254 30.8703 57.1509 31.3478 56.571 31.8407C55.5342 32.7187 55.5166 32.7495 55.5166 33.5505C55.5166 34.1513 55.6045 34.4286 55.8154 34.5672C56.079 34.7366 56.079 34.8291 55.9208 35.1217C55.7978 35.322 55.6748 35.6455 55.6045 35.8303C55.4815 36.2308 54.1108 36.8624 53.8648 36.6467C53.6539 36.4619 53.2321 36.4465 53.2321 36.6313C53.2321 36.7083 53.3903 36.8008 53.5836 36.847C53.8121 36.8932 53.8999 37.001 53.8296 37.1705C53.6715 37.5402 53.5309 37.4785 52.8631 36.77C52.5292 36.4003 52.0372 35.9382 51.7736 35.7225C50.7192 34.9215 50.4908 34.7058 50.2096 34.3515C49.9108 33.9819 49.4715 33.9664 48.8565 34.3207C48.505 34.521 48.8916 35.0447 49.4891 35.1526C50.1217 35.2604 50.561 35.5685 50.6313 35.9536C50.6665 36.1692 50.5962 36.2616 50.3853 36.2462C50.2096 36.2308 50.069 36.277 50.069 36.3541C50.069 36.4311 49.9636 36.4927 49.823 36.4927C49.4715 36.4927 48.6807 35.6147 48.2063 34.7212C47.7845 33.874 47.1343 33.2733 46.2029 32.8728C45.869 32.7187 45.4121 32.4569 45.1837 32.2874C44.9552 32.1026 44.4456 31.8407 44.0415 31.7175C43.5143 31.548 43.2858 31.3786 43.2507 31.1321C43.1804 30.7624 42.6005 30.6546 42.4775 30.9781C42.3544 31.2862 40.1402 29.0988 40.193 28.7291C40.2457 28.2978 40.8607 27.8665 41.4231 27.8665C41.8624 27.8665 41.8624 27.8819 41.5988 28.1284C41.3176 28.3594 41.3352 28.421 42.0206 29.0834C42.8641 29.8998 43.3561 30.1771 43.7076 30.0539C44.0239 29.9614 43.8482 28.5751 43.4615 28.0513C43.321 27.8665 43.2858 27.7125 43.3913 27.7125C43.4791 27.7125 43.567 27.5738 43.567 27.4198C43.567 27.1271 42.8289 26.8498 42.5126 27.0193C42.3193 27.1271 41.2825 26.6342 41.2825 26.4493C41.2825 26.2491 39.9118 26.3107 39.8415 26.511C39.7888 26.6496 39.5955 26.6188 39.1386 26.4339C38.3302 26.095 38.2424 26.1104 38.3829 26.4801C38.4708 26.742 38.4181 26.7882 38.0315 26.7882C37.7152 26.7882 37.5219 26.6958 37.4691 26.4801C37.3988 26.2337 37.2231 26.1721 36.6256 26.1721C36.2039 26.1721 35.8349 26.2337 35.7997 26.3107C35.7821 26.3877 35.3955 26.4955 34.9913 26.5572C34.306 26.6496 34.2357 26.6342 34.2884 26.3877C34.3763 26.0026 33.7085 25.5405 33.2516 25.6483C32.9704 25.7099 32.8123 25.6175 32.5663 25.2632C32.3905 25.0014 31.9688 24.6933 31.5998 24.5701C30.7211 24.262 28.8232 23.0605 28.8232 22.814C28.8056 22.7216 28.9638 22.6292 29.1571 22.6292C29.3504 22.6292 29.5086 22.5521 29.5086 22.4751C29.5086 22.2903 28.7881 22.013 28.5948 22.1054C28.5245 22.1516 28.542 21.9668 28.6299 21.7203C28.7353 21.366 28.7002 21.1196 28.4366 20.6729C28.2609 20.3648 28.1027 19.9181 28.1027 19.7024C28.1203 19.3327 28.1203 19.3327 28.3663 19.61C28.5069 19.7794 28.6826 19.8565 28.7529 19.7948C28.8232 19.7332 28.8056 19.6408 28.7178 19.5792C28.6123 19.5176 28.419 19.2557 28.2609 18.9938C28.0149 18.5779 27.9973 18.4393 28.2082 17.9156C28.3312 17.5921 28.5245 16.8373 28.6123 16.2673C28.7353 15.5279 28.9111 15.0658 29.245 14.6807C29.491 14.3881 29.6667 14.157 29.614 14.157C29.5613 14.157 29.2098 14.5267 28.8232 14.9734ZM26.6969 19.8565C26.6969 19.9335 26.6266 20.0105 26.5211 20.0105C26.4333 20.0105 26.3454 19.9335 26.3454 19.8565C26.3454 19.764 26.4333 19.7024 26.5211 19.7024C26.6266 19.7024 26.6969 19.764 26.6969 19.8565ZM29.4207 24.0155C29.4734 24.0925 29.4031 24.1696 29.2625 24.1696C29.1044 24.1696 28.9814 24.0925 28.9814 24.0155C28.9814 23.9231 29.0517 23.8615 29.1395 23.8615C29.245 23.8615 29.368 23.9231 29.4207 24.0155ZM24.7638 25.7099C24.922 25.9564 24.9044 26.018 24.676 26.018C24.5354 26.018 24.4124 25.8794 24.4124 25.7099C24.4124 25.5405 24.4475 25.4019 24.5003 25.4019C24.5354 25.4019 24.6584 25.5405 24.7638 25.7099ZM31.9688 25.864C31.9688 25.941 31.8458 26.018 31.7052 26.018C31.5646 26.018 31.4416 25.941 31.4416 25.864C31.4416 25.7716 31.5646 25.7099 31.7052 25.7099C31.8458 25.7099 31.9688 25.7716 31.9688 25.864ZM25.2383 26.665C25.1856 26.7882 25.1329 26.742 25.1329 26.5726C25.1153 26.4031 25.168 26.3107 25.2207 26.3723C25.2735 26.4185 25.291 26.5572 25.2383 26.665ZM37.0298 26.6804C37.0825 26.9115 36.9947 26.9577 36.5905 26.9115C36.2917 26.8806 36.0809 26.7574 36.0457 26.588C35.993 26.3569 36.0809 26.3107 36.4851 26.3569C36.7838 26.3877 36.9947 26.511 37.0298 26.6804ZM24.6233 27.4352C24.5003 27.543 24.4124 27.5584 24.4124 27.466C24.4124 27.2503 24.6233 27.0655 24.7463 27.1733C24.7814 27.2195 24.7287 27.3428 24.6233 27.4352ZM39.7009 27.8511C39.7009 28.113 39.49 28.4827 39.3319 28.4827C39.1562 28.4827 39.121 27.9743 39.2967 27.8203C39.4549 27.6662 39.7009 27.6816 39.7009 27.8511ZM24.0609 28.3902C24.0609 28.4364 23.9906 28.5135 23.8852 28.5597C23.7973 28.6059 23.7095 28.5751 23.7095 28.4981C23.7095 28.4056 23.7973 28.3286 23.8852 28.3286C23.9906 28.3286 24.0609 28.3594 24.0609 28.3902ZM23.2701 29.0834C23.2174 29.1758 23.0768 29.2528 22.9714 29.2528C22.866 29.2528 22.866 29.1604 23.0065 29.0218C23.2526 28.7599 23.4634 28.8215 23.2701 29.0834ZM22.5145 29.7458C22.3915 29.8536 22.3036 29.869 22.3036 29.7766C22.3036 29.5609 22.5145 29.3761 22.6375 29.4839C22.6727 29.5301 22.6199 29.6534 22.5145 29.7458ZM21.8292 30.7932C21.7413 31.0859 21.425 31.24 21.425 30.9781C21.425 30.8703 21.7764 30.4852 21.8819 30.4852C21.8994 30.4852 21.8819 30.6238 21.8292 30.7932ZM58.2932 32.041C58.258 32.1334 58.1702 32.195 58.0999 32.195C58.0296 32.1796 57.8539 32.1796 57.7133 32.1796C57.5727 32.1796 57.4497 32.1026 57.4497 32.0256C57.4497 31.9331 57.6605 31.8715 57.9066 31.8715C58.1526 31.8715 58.3283 31.9485 58.2932 32.041ZM25.4668 32.3336C25.4668 32.4107 25.3965 32.4877 25.291 32.4877C25.2032 32.4877 25.1153 32.4107 25.1153 32.3336C25.1153 32.2412 25.2032 32.1796 25.291 32.1796C25.3965 32.1796 25.4668 32.2412 25.4668 32.3336ZM25.0274 32.7958C24.9747 32.8728 24.799 32.9498 24.6584 32.9498C24.5178 32.9498 24.4124 32.8728 24.4124 32.7958C24.4124 32.7033 24.5705 32.6417 24.7814 32.6417C24.9747 32.6417 25.0802 32.7033 25.0274 32.7958ZM22.6551 34.6442C22.6551 34.7212 22.5848 34.7983 22.4794 34.7983C22.3915 34.7983 22.3036 34.7212 22.3036 34.6442C22.3036 34.5518 22.3915 34.4902 22.4794 34.4902C22.5848 34.4902 22.6551 34.5518 22.6551 34.6442ZM23.2701 35.2604C23.3229 35.3374 23.2877 35.4144 23.1998 35.4144C23.0944 35.4144 23.0065 35.3374 23.0065 35.2604C23.0065 35.168 23.0417 35.1063 23.0768 35.1063C23.1296 35.1063 23.2174 35.168 23.2701 35.2604ZM57.1861 35.245C57.2739 35.3836 56.3426 35.8765 55.9735 35.8765C55.7802 35.8765 56.7467 35.1217 56.9576 35.1063C57.0279 35.1063 57.1158 35.168 57.1861 35.245ZM21.425 36.4773C21.425 36.5543 21.3195 36.6929 21.1789 36.7854C20.9681 36.9394 20.9505 36.9086 21.0208 36.6621C21.1087 36.3387 21.425 36.2 21.425 36.4773ZM22.7957 37.1551C22.8308 37.3091 22.7429 37.4169 22.5848 37.4169C22.4442 37.4169 22.2685 37.5556 22.2158 37.725C22.0752 38.1255 21.425 38.1409 21.425 37.7404C21.425 37.5864 21.5831 37.4169 21.7764 37.3707C21.9697 37.3245 22.1279 37.1705 22.1279 37.0318C22.1279 36.6929 22.7254 36.8008 22.7957 37.1551ZM20.5463 37.648C20.5463 37.7096 19.7204 38.8033 19.5622 38.9419C19.2986 39.173 19.5622 38.4798 19.8434 38.1871C20.0367 37.9869 20.1949 37.7712 20.1949 37.6942C20.1949 37.6326 20.2827 37.571 20.3706 37.571C20.476 37.571 20.5463 37.6018 20.5463 37.648ZM18.4376 38.3258C18.4376 38.4028 18.3145 38.4952 18.174 38.5568C17.9104 38.6338 17.8225 38.4798 18.0334 38.295C18.1915 38.1409 18.4376 38.1563 18.4376 38.3258ZM17.7346 38.8649C17.7346 38.9111 17.6643 38.9881 17.5589 39.0343C17.471 39.0806 17.3832 39.0497 17.3832 38.9727C17.3832 38.8803 17.471 38.8033 17.5589 38.8033C17.6643 38.8033 17.7346 38.8341 17.7346 38.8649ZM17.5589 40.1126C17.5589 40.2358 17.4886 40.3437 17.3832 40.3437C17.2953 40.3437 17.2602 40.2358 17.3129 40.1126C17.3832 39.9894 17.4535 39.8816 17.4886 39.8816C17.5238 39.8816 17.5589 39.9894 17.5589 40.1126ZM19.1405 40.8982C19.1405 41.0214 19.0702 41.0831 18.9647 41.0369C18.8769 40.9906 18.789 40.8828 18.789 40.7904C18.789 40.7134 18.8769 40.6518 18.9647 40.6518C19.0702 40.6518 19.1405 40.7596 19.1405 40.8982ZM20.0191 42.0535C20.0191 42.4386 19.4392 42.3924 19.3514 41.9919C19.3162 41.807 19.4041 41.73 19.6501 41.73C19.9137 41.73 20.0191 41.8225 20.0191 42.0535ZM18.6133 42.0073C18.6133 42.2075 18.4024 42.3462 18.2267 42.2538C18.0509 42.1613 18.2091 41.8841 18.4551 41.8841C18.543 41.8841 18.6133 41.9457 18.6133 42.0073ZM17.8225 45.735C17.8752 45.8121 17.8401 45.8891 17.7522 45.8891C17.6468 45.8891 17.5589 45.8121 17.5589 45.735C17.5589 45.6426 17.5941 45.581 17.6292 45.581C17.6819 45.581 17.7698 45.6426 17.8225 45.735ZM18.5781 50.7105C18.6133 51.0032 18.5606 51.1264 18.3497 51.1264C18.0158 51.1264 17.8225 50.7567 17.9807 50.4178C18.1388 50.0636 18.5254 50.2484 18.5781 50.7105Z" fill="#9d8162"/>
<path d="M39.8766 16.9143C39.8766 17.0683 40.07 17.4226 40.316 17.7153C40.562 18.008 40.931 18.4855 41.1419 18.7782C41.4582 19.1941 41.5637 19.2557 41.5988 19.0401C41.634 18.886 41.3704 18.4701 40.9486 18.085C40.5093 17.6537 40.2281 17.2532 40.2281 17.0067C40.2281 16.7911 40.1578 16.6216 40.0524 16.6216C39.9645 16.6216 39.8766 16.7449 39.8766 16.9143Z" fill="#9d8162"/>
<path d="M46.941 17.0991C46.9762 17.207 47.1168 17.3302 47.2398 17.361C47.3804 17.4072 47.4506 17.3456 47.3979 17.2224C47.3628 17.1146 47.2222 16.9913 47.0992 16.9605C46.9586 16.9143 46.8883 16.9759 46.941 17.0991Z" fill="#9d8162"/>
<path d="M42.1787 17.8694C42.372 18.1158 42.6356 18.3161 42.7762 18.3161C42.8992 18.3161 43.1276 18.4085 43.2506 18.5317C43.5494 18.7782 44.2699 18.9938 44.2699 18.8244C44.2523 18.5009 43.3912 17.8848 42.6356 17.6691L41.8272 17.438L42.1787 17.8694Z" fill="#9d8162"/>
<path d="M17.9455 18.1928C17.6819 18.7936 17.7697 18.9014 18.1388 18.4239C18.2794 18.2236 18.3497 17.9772 18.2794 17.8847C18.2091 17.7769 18.0685 17.9001 17.9455 18.1928Z" fill="#9d8162"/>
<path d="M16.1882 19.1171C15.9422 19.3327 15.907 19.764 16.1531 19.6254C16.3991 19.4868 16.7154 18.9322 16.5397 18.9322C16.4694 18.9322 16.3112 19.0092 16.1882 19.1171Z" fill="#9d8162"/>
<path d="M17.3832 19.1633C17.2602 19.3019 17.2074 19.4406 17.2602 19.4868C17.3129 19.533 17.4359 19.4251 17.5589 19.2557C17.7874 18.8706 17.6995 18.8398 17.3832 19.1633Z" fill="#9d8162"/>
<path d="M44.2699 19.6716C44.2699 19.7486 44.5159 19.9951 44.8147 20.2569L45.3419 20.7037L45.1485 20.2415C44.9552 19.8102 44.6917 19.5484 44.4105 19.5484C44.3226 19.5484 44.2699 19.61 44.2699 19.6716Z" fill="#9d8162"/>
<path d="M16.61 20.411C16.4518 20.7499 16.6627 20.9039 16.856 20.6267C17.0669 20.334 17.0669 20.1645 16.8736 20.1645C16.7857 20.1645 16.6627 20.2724 16.61 20.411Z" fill="#9d8162"/>
<path d="M15.1865 20.4572C15.0811 20.6267 15.3447 20.8115 15.5204 20.6729C15.6785 20.5342 15.6434 20.3186 15.4677 20.3186C15.3622 20.3186 15.2568 20.3802 15.1865 20.4572Z" fill="#9d8162"/>
<path d="M42.7762 20.4726C42.8289 20.5496 42.9519 20.6266 43.0573 20.6266C43.1452 20.6266 43.2155 20.5496 43.2155 20.4726C43.2155 20.3802 43.0925 20.3186 42.9343 20.3186C42.7937 20.3186 42.7235 20.3802 42.7762 20.4726Z" fill="#9d8162"/>
<path d="M46.115 22.3211C46.1678 22.3981 46.2556 22.4751 46.3083 22.4751C46.3435 22.4751 46.3786 22.3981 46.3786 22.3211C46.3786 22.2287 46.2908 22.167 46.1853 22.167C46.0975 22.167 46.0623 22.2287 46.115 22.3211Z" fill="#9d8162"/>
<path d="M48.0305 23.3223C48.3995 23.615 48.7334 23.8615 48.8037 23.8615C48.8564 23.8615 48.6456 23.615 48.3117 23.3223C47.9778 23.0297 47.6439 22.7832 47.556 22.7832C47.4506 22.7832 47.679 23.0297 48.0305 23.3223Z" fill="#9d8162"/>
<path d="M23.5161 24.1079C23.3228 24.3236 23.3404 24.3544 23.6743 24.2928C23.9027 24.2774 24.0785 24.185 24.0785 24.0925C24.096 23.8307 23.7797 23.8461 23.5161 24.1079Z" fill="#9d8162"/>
<path d="M12.9372 24.6009C12.5155 25.0014 12.5682 25.1246 13.1305 25.063C13.4644 25.0322 13.605 24.9244 13.605 24.7241C13.605 24.3082 13.2887 24.262 12.9372 24.6009Z" fill="#9d8162"/>
<path d="M21.6007 24.7857C21.6007 24.8627 21.6886 24.9397 21.7764 24.9397C21.8819 24.9397 21.9522 24.8627 21.9522 24.7857C21.9522 24.6933 21.8819 24.6317 21.7764 24.6317C21.6886 24.6317 21.6007 24.6933 21.6007 24.7857Z" fill="#9d8162"/>
<path d="M49.4715 25.1092C49.7527 25.4173 50.0163 25.6329 50.0514 25.6021C50.1042 25.5713 49.8757 25.3248 49.5418 25.0476L48.9443 24.5546L49.4715 25.1092Z" fill="#9d8162"/>
<path d="M39.8766 25.0168C39.8766 25.1554 39.9645 25.2478 40.07 25.217C40.1754 25.1862 40.2633 25.0938 40.2633 25.0168C40.2633 24.9398 40.1754 24.8473 40.07 24.8165C39.9645 24.7857 39.8766 24.8781 39.8766 25.0168Z" fill="#9d8162"/>
<path d="M41.2825 24.9398C41.2825 25.0168 41.3703 25.0938 41.4582 25.0938C41.5636 25.0938 41.6339 25.0168 41.6339 24.9398C41.6339 24.8473 41.5636 24.7857 41.4582 24.7857C41.3703 24.7857 41.2825 24.8473 41.2825 24.9398Z" fill="#9d8162"/>
<path d="M21.0208 25.4481C20.8275 25.8948 20.8626 26.2645 21.0911 26.0642C21.1965 25.9718 21.2492 25.7408 21.2141 25.5405C21.1614 25.217 21.1438 25.2016 21.0208 25.4481Z" fill="#9d8162"/>
<path d="M22.409 25.4789C22.4793 25.6021 22.5496 25.7099 22.5848 25.7099C22.6199 25.7099 22.6551 25.6021 22.6551 25.4789C22.6551 25.3557 22.5848 25.2478 22.4793 25.2478C22.3915 25.2478 22.3563 25.3557 22.409 25.4789Z" fill="#9d8162"/>
<path d="M37.7678 25.4635C37.7678 25.6021 37.8557 25.7099 37.9436 25.7099C38.049 25.7099 38.1193 25.6483 38.1193 25.5713C38.1193 25.4789 38.049 25.3711 37.9436 25.3248C37.8557 25.2786 37.7678 25.3403 37.7678 25.4635Z" fill="#9d8162"/>
<path d="M13.1129 25.8024C12.8318 26.0488 13.0075 26.3415 13.3941 26.2953C13.605 26.2645 13.7807 26.1413 13.7807 26.018C13.7807 25.7716 13.3238 25.6329 13.1129 25.8024Z" fill="#9d8162"/>
<path d="M20.8978 27.0809C20.8978 27.1579 20.9856 27.2811 21.0735 27.3274C21.1789 27.3736 21.2492 27.3582 21.2492 27.2657C21.2492 27.1887 21.1789 27.0655 21.0735 27.0193C20.9856 26.9731 20.8978 26.9885 20.8978 27.0809Z" fill="#9d8162"/>
<path d="M19.6149 27.2965C19.5271 27.4968 19.6501 27.7124 20.0191 28.0513C20.3706 28.3594 20.5463 28.4364 20.5463 28.267C20.5463 28.1438 20.4057 27.9435 20.2124 27.8357C20.0367 27.7279 19.8609 27.4968 19.8082 27.3274C19.7555 27.0347 19.7379 27.0347 19.6149 27.2965Z" fill="#9d8162"/>
<path d="M19.404 29.0988C19.3513 29.1758 19.3689 29.2528 19.4743 29.2528C19.5622 29.2528 19.7028 29.1758 19.7555 29.0988C19.8082 29.0064 19.7906 28.9448 19.6852 28.9448C19.5973 28.9448 19.4568 29.0064 19.404 29.0988Z" fill="#9d8162"/>
<path d="M18.5782 30.0384C18.42 30.1771 18.2443 30.4698 18.174 30.6546C18.051 30.9935 18.0685 31.0089 18.3497 30.7932C18.6133 30.593 19.0526 29.869 18.9296 29.792C18.8945 29.7766 18.7539 29.8844 18.5782 30.0384Z" fill="#9d8162"/>
<path d="M46.203 30.9473C46.203 31.0243 46.2909 31.1013 46.3963 31.1013C46.4842 31.1013 46.5193 31.0243 46.4666 30.9473C46.4139 30.8549 46.326 30.7932 46.2733 30.7932C46.2381 30.7932 46.203 30.8549 46.203 30.9473Z" fill="#9d8162"/>
<path d="M17.4711 31.5634C17.4183 31.6405 17.4535 31.7175 17.5414 31.7175C17.6468 31.7175 17.7347 31.6405 17.7347 31.5634C17.7347 31.471 17.6995 31.4094 17.6644 31.4094C17.6116 31.4094 17.5238 31.471 17.4711 31.5634Z" fill="#9d8162"/>
<path d="M45.3243 31.5634L44.8849 31.6867L45.377 31.7021C45.6406 31.7175 45.8515 31.6405 45.8515 31.5634C45.8515 31.471 45.8339 31.4094 45.8163 31.4248C45.7812 31.4402 45.5703 31.5018 45.3243 31.5634Z" fill="#9d8162"/>
<path d="M47.6088 32.8728C47.6088 33.0576 48.4874 33.7816 48.5753 33.6892C48.6456 33.643 48.4698 33.4119 48.2238 33.1962C47.7669 32.7957 47.6088 32.7187 47.6088 32.8728Z" fill="#9d8162"/>
<path d="M26.5211 34.0281C26.5211 34.1051 26.609 34.1821 26.6968 34.1821C26.8023 34.1821 26.8726 34.1051 26.8726 34.0281C26.8726 33.9356 26.8023 33.874 26.6968 33.874C26.609 33.874 26.5211 33.9356 26.5211 34.0281Z" fill="#9d8162"/>
<path d="M26.609 35.399C26.5036 35.5685 26.7672 35.7533 26.9429 35.6147C27.1011 35.476 27.0659 35.2604 26.8902 35.2604C26.7848 35.2604 26.6793 35.322 26.609 35.399Z" fill="#9d8162"/>
<path d="M18.0861 35.8765C18.0861 36.046 18.2091 36.1846 18.3497 36.1846C18.4902 36.1846 18.6133 36.046 18.6133 35.8765C18.6133 35.7071 18.4902 35.5684 18.3497 35.5684C18.2091 35.5684 18.0861 35.7071 18.0861 35.8765Z" fill="#9d8162"/>
<path d="M27.7512 36.3078C27.7512 36.3849 27.8567 36.5543 27.9797 36.7238C28.2608 37.0318 28.5244 36.8316 28.3487 36.4311C28.2433 36.1846 27.7512 36.0768 27.7512 36.3078Z" fill="#9d8162"/>
<path d="M28.296 37.6634C28.296 37.8328 28.3487 37.879 28.4014 37.7558C28.4541 37.648 28.4366 37.5094 28.3839 37.4631C28.3311 37.4015 28.2784 37.4939 28.296 37.6634Z" fill="#9d8162"/>
<path d="M25.2031 38.7879C25.1504 38.8649 25.1855 38.9727 25.291 39.0343C25.3788 39.0806 25.4667 39.0189 25.4667 38.8957C25.4667 38.6184 25.3613 38.5722 25.2031 38.7879Z" fill="#9d8162"/>
<path d="M28.4542 38.9573C28.4542 39.0343 28.5421 39.1114 28.6475 39.1114C28.7354 39.1114 28.7705 39.0343 28.7178 38.9573C28.6651 38.8649 28.5772 38.8033 28.5245 38.8033C28.4894 38.8033 28.4542 38.8649 28.4542 38.9573Z" fill="#9d8162"/>
<path d="M4.20343 39.5119C4.20343 39.6351 4.2913 39.6967 4.37916 39.6505C4.4846 39.6043 4.55489 39.4965 4.55489 39.404C4.55489 39.327 4.4846 39.2654 4.37916 39.2654C4.2913 39.2654 4.20343 39.3732 4.20343 39.5119Z" fill="#9d8162"/>
<path d="M21.425 39.5889C21.425 39.897 21.4953 39.9124 22.1631 39.8199C23.0066 39.6967 23.0944 39.6659 22.9187 39.4348C22.866 39.3424 22.4969 39.2654 22.1103 39.2654C21.5304 39.2654 21.425 39.3116 21.425 39.5889Z" fill="#9d8162"/>
<path d="M24.4124 39.5735C24.4124 39.6505 24.5002 39.7275 24.5881 39.7275C24.6935 39.7275 24.7638 39.6505 24.7638 39.5735C24.7638 39.4811 24.6935 39.4194 24.5881 39.4194C24.5002 39.4194 24.4124 39.4811 24.4124 39.5735Z" fill="#9d8162"/>
<path d="M28.2784 40.0972C28.2784 40.2204 28.3663 40.3745 28.4542 40.4207C28.5596 40.4669 28.6299 40.3745 28.6299 40.205C28.6299 40.0202 28.5596 39.8816 28.4542 39.8816C28.3663 39.8816 28.2784 39.974 28.2784 40.0972Z" fill="#9d8162"/>
<path d="M23.5338 40.2513C23.5338 40.3591 23.6743 40.5593 23.8325 40.6672C24.0961 40.852 24.1137 40.852 24.0082 40.6055C23.9379 40.4515 23.8852 40.2513 23.8852 40.1742C23.8852 40.0972 23.8149 40.0356 23.7095 40.0356C23.6216 40.0356 23.5338 40.128 23.5338 40.2513Z" fill="#9d8162"/>
<path d="M25.1153 40.1896C25.1153 40.2667 25.2032 40.3437 25.3086 40.3437C25.3965 40.3437 25.4316 40.2667 25.3789 40.1896C25.3262 40.0972 25.2383 40.0356 25.1856 40.0356C25.1504 40.0356 25.1153 40.0972 25.1153 40.1896Z" fill="#9d8162"/>
<path d="M12.4627 40.6517C12.4627 40.7288 12.5506 40.8058 12.6384 40.8058C12.7439 40.8058 12.8142 40.7288 12.8142 40.6517C12.8142 40.5593 12.7439 40.4977 12.6384 40.4977C12.5506 40.4977 12.4627 40.5593 12.4627 40.6517Z" fill="#9d8162"/>
<path d="M16.0652 40.8212C15.8719 41.0831 16.0828 41.1447 16.3288 40.8828C16.4694 40.7442 16.4694 40.6517 16.3639 40.6517C16.2585 40.6517 16.1179 40.7288 16.0652 40.8212Z" fill="#9d8162"/>
<path d="M28.6475 40.8212C28.6299 40.9598 28.8056 41.1909 29.0341 41.3603C29.4207 41.653 29.4207 41.653 29.1395 41.3449C28.9813 41.1755 28.8056 40.929 28.7529 40.8058C28.665 40.6055 28.6475 40.6055 28.6475 40.8212Z" fill="#9d8162"/>
<path d="M15.4501 41.5914C15.3271 41.7608 15.2744 41.9457 15.3271 41.9765C15.3623 42.0073 15.4853 41.8687 15.5907 41.653C15.8367 41.1909 15.7137 41.1447 15.4501 41.5914Z" fill="#9d8162"/>
<path d="M24.4124 41.4219C24.4124 41.499 24.5002 41.576 24.6057 41.576C24.6935 41.576 24.7287 41.499 24.6759 41.4219C24.6232 41.3295 24.5354 41.2679 24.4826 41.2679C24.4475 41.2679 24.4124 41.3295 24.4124 41.4219Z" fill="#9d8162"/>
<path d="M23.7095 42.1768C23.7095 42.3462 23.7973 42.531 23.8852 42.5773C23.9906 42.6389 24.0609 42.5002 24.0609 42.2846C24.0609 42.0689 23.9906 41.8841 23.8852 41.8841C23.7973 41.8841 23.7095 42.0227 23.7095 42.1768Z" fill="#9d8162"/>
<path d="M14.3958 42.8853C14.0619 43.178 13.851 43.4245 13.9213 43.4245C14.0443 43.4245 15.0987 42.5002 15.0987 42.4078C15.0987 42.2846 14.9581 42.377 14.3958 42.8853Z" fill="#9d8162"/>
<path d="M20.7924 42.5156C20.6166 42.7775 21.0208 43.0702 21.2668 42.8545C21.4777 42.6697 21.3371 42.3462 21.0735 42.3462C20.9857 42.3462 20.8627 42.4232 20.7924 42.5156Z" fill="#9d8162"/>
<path d="M28.9814 42.6543C28.9814 42.7313 29.1044 42.8083 29.245 42.8083C29.3856 42.8083 29.5086 42.7313 29.5086 42.6543C29.5086 42.5618 29.3856 42.5002 29.245 42.5002C29.1044 42.5002 28.9814 42.5618 28.9814 42.6543Z" fill="#9d8162"/>
<path d="M22.2333 43.024C22.2861 43.1472 22.4442 43.2858 22.5848 43.332C22.7957 43.3937 22.7957 43.3628 22.6551 43.1164C22.4442 42.7621 22.0927 42.7005 22.2333 43.024Z" fill="#9d8162"/>
<path d="M12.6208 43.2396C12.7087 43.3937 12.9371 43.6247 13.0953 43.7479C13.3765 43.9328 13.3765 43.902 13.0777 43.4553C12.7263 42.9469 12.3221 42.7467 12.6208 43.2396Z" fill="#9d8162"/>
<path d="M24.1488 43.2704C24.2015 43.3474 24.3421 43.4245 24.43 43.4245C24.5354 43.4245 24.553 43.3474 24.5002 43.2704C24.4475 43.178 24.3069 43.1164 24.2191 43.1164C24.1136 43.1164 24.0961 43.178 24.1488 43.2704Z" fill="#9d8162"/>
<path d="M23.0944 43.8866C23.1471 43.9636 23.235 44.0406 23.2877 44.0406C23.3229 44.0406 23.358 43.9636 23.358 43.8866C23.358 43.7941 23.2701 43.7325 23.1647 43.7325C23.0768 43.7325 23.0417 43.7941 23.0944 43.8866Z" fill="#9d8162"/>
<path d="M11.4259 44.2717C11.4083 44.6106 14.4836 47.4141 14.6594 47.2446C14.7121 47.1984 14.343 46.7825 13.8334 46.3358C13.3238 45.8737 12.5682 45.1497 12.164 44.7338C11.5841 44.133 11.4259 44.0252 11.4259 44.2717Z" fill="#9d8162"/>
<path d="M14.7472 44.4257C14.5539 44.626 14.5714 44.6414 14.8174 44.5644C14.9756 44.5181 15.0986 44.4103 15.0986 44.3333C15.0986 44.133 14.9932 44.1638 14.7472 44.4257Z" fill="#9d8162"/>
<path d="M23.5338 44.3179C23.5338 44.5027 23.8676 44.7184 23.9907 44.6106C24.0258 44.5798 23.9555 44.4565 23.7973 44.3487C23.6392 44.2255 23.5338 44.2255 23.5338 44.3179Z" fill="#9d8162"/>
<path d="M24.4124 45.1189C24.4124 45.1959 24.5354 45.2729 24.6759 45.2729C24.8165 45.2729 24.9395 45.1959 24.9395 45.1189C24.9395 45.0265 24.8165 44.9648 24.6759 44.9648C24.5354 44.9648 24.4124 45.0265 24.4124 45.1189Z" fill="#9d8162"/>
<path d="M29.3328 45.1189C29.3328 45.1959 29.4558 45.2729 29.614 45.2729C29.7546 45.2729 29.8249 45.1959 29.7722 45.1189C29.7194 45.0265 29.5964 44.9648 29.491 44.9648C29.4031 44.9648 29.3328 45.0265 29.3328 45.1189Z" fill="#9d8162"/>
<path d="M3.62347 45.6734C3.18415 46.1818 3.25444 46.459 3.93979 47.0136C4.27368 47.2754 4.55484 47.5835 4.55484 47.6913C4.55484 47.7838 4.64271 47.9224 4.74815 47.984C5.01174 48.1227 4.9063 47.7376 4.34397 46.3358C3.92221 45.3345 3.92221 45.3345 3.62347 45.6734Z" fill="#9d8162"/>
<path d="M14.4836 45.735C14.4309 45.8121 14.5012 45.8891 14.6418 45.8891C14.7999 45.8891 14.923 45.8121 14.923 45.735C14.923 45.6426 14.8527 45.581 14.7648 45.581C14.6594 45.581 14.5363 45.6426 14.4836 45.735Z" fill="#9d8162"/>
<path d="M28.419 45.6888C28.5245 45.7196 28.7353 45.7196 28.8584 45.6888C28.9638 45.6426 28.8759 45.6118 28.6299 45.6118C28.3839 45.6118 28.296 45.6426 28.419 45.6888Z" fill="#9d8162"/>
<path d="M30.0358 45.735C30.0358 45.8121 30.1236 45.8891 30.2291 45.8891C30.3169 45.8891 30.3521 45.8121 30.2994 45.735C30.2466 45.6426 30.1588 45.581 30.1061 45.581C30.0709 45.581 30.0358 45.6426 30.0358 45.735Z" fill="#9d8162"/>
<path d="M25.291 46.3512C25.291 46.4282 25.3789 46.5052 25.4667 46.5052C25.5722 46.5052 25.6425 46.4282 25.6425 46.3512C25.6425 46.2588 25.5722 46.1972 25.4667 46.1972C25.3789 46.1972 25.291 46.2588 25.291 46.3512Z" fill="#9d8162"/>
<path d="M29.4207 46.3512C29.491 46.4436 29.614 46.4744 29.7019 46.4282C29.9479 46.2896 29.8952 46.1972 29.5789 46.1972C29.4383 46.1972 29.368 46.2742 29.4207 46.3512Z" fill="#9d8162"/>
<path d="M23.6216 47.1214C23.6743 47.1984 23.7622 47.2754 23.8149 47.2754C23.85 47.2754 23.8852 47.1984 23.8852 47.1214C23.8852 47.029 23.7973 46.9674 23.6919 46.9674C23.604 46.9674 23.5689 47.029 23.6216 47.1214Z" fill="#9d8162"/>
<path d="M2.92052 47.3063C2.88537 47.4141 2.88537 47.7222 2.93809 47.9994C3.0611 48.708 2.8678 49.0623 2.53391 48.8158C2.12973 48.5232 2.04187 48.708 2.25274 49.3858C2.55149 50.3408 2.49877 50.7567 2.00672 51.034C1.51468 51.3113 1.5674 51.5885 2.09459 51.5885C2.30546 51.5885 2.44605 51.4653 2.48119 51.2497C2.51634 51.0494 2.6745 50.88 2.85023 50.8492C3.09625 50.8029 3.14897 50.9108 3.14897 51.4037C3.14897 51.8042 3.25441 52.0969 3.50043 52.2817C3.69373 52.4358 3.85189 52.7284 3.85189 52.9287C3.85189 53.1289 3.95733 53.3292 4.09791 53.3754C4.4318 53.4832 4.73054 54.2534 4.60753 54.6693C4.53724 54.885 4.64268 55.116 4.90627 55.3625C5.29288 55.7168 5.29288 55.7784 5.06443 56.1635C4.92384 56.41 4.69539 56.6872 4.55481 56.7951C4.32636 56.9799 4.32636 56.9953 4.55481 56.8875C4.69539 56.8259 4.95899 56.6718 5.13472 56.5486C5.59162 56.1943 5.85521 56.5178 5.87279 57.4574C5.89036 58.1814 6.10124 58.5049 6.55813 58.5203C6.646 58.5203 6.66357 58.1968 6.59328 57.8117C6.54056 57.3804 6.55813 57.0107 6.68115 56.8875C6.80416 56.7489 6.76901 56.6718 6.52299 56.6102C6.32969 56.5486 6.11881 56.3484 6.06609 56.1635C5.92551 55.7168 5.92551 54.1302 6.06609 54.007C6.27697 53.8221 6.66357 54.0994 6.66357 54.4383C6.66357 54.6693 6.80416 54.8234 7.06775 54.885C7.68281 55.0236 7.7531 55.0082 7.68281 54.5615C7.64766 54.2688 7.50708 54.1148 7.19076 54.0532C6.8393 53.9762 6.76901 53.8683 6.80416 53.5602C6.85688 53.1443 5.92551 51.2651 5.50375 50.957C5.36317 50.8646 5.25773 50.6027 5.25773 50.3716C5.25773 50.1406 5.11715 49.8941 4.94142 49.7863C4.76569 49.6939 4.46694 49.278 4.30879 48.8775C3.9749 48.0919 3.3247 47.1214 3.11382 47.1214C3.0611 47.1214 2.97324 47.2138 2.92052 47.3063ZM5.78492 53.1443C5.78492 53.3754 5.71463 53.437 5.50375 53.3754C5.3456 53.3292 5.18744 53.283 5.15229 53.283C5.11715 53.283 5.082 53.1751 5.082 53.0519C5.082 52.9287 5.24016 52.8209 5.43346 52.8209C5.67948 52.8209 5.78492 52.9287 5.78492 53.1443Z" fill="#9d8162"/>
<path d="M31.2658 47.2446C31.2658 47.3063 31.3361 47.5835 31.424 47.8608C31.5294 48.1689 31.5294 48.3537 31.424 48.3537C31.1077 48.3537 31.2658 48.9545 31.6349 49.1393C31.9512 49.278 31.9863 49.4012 31.8809 49.9711C31.793 50.5873 31.8282 50.6797 32.3026 51.0494C32.6014 51.2959 32.865 51.681 32.9353 52.0044C33.0231 52.4204 33.1637 52.5898 33.5679 52.713C33.9194 52.8363 34.0775 52.9903 34.0775 53.2368C34.0775 53.437 34.3235 53.7451 34.675 54.007C35.3076 54.4383 35.3428 54.6693 34.7629 54.6693C34.3235 54.6693 34.3411 54.9158 34.7804 55.1314C34.9913 55.2239 35.3252 55.6706 35.5537 56.1019C35.7821 56.5486 36.1687 57.0415 36.4323 57.1956C36.8189 57.4112 36.8716 57.5036 36.7135 57.6731C36.5553 57.8425 36.6959 58.0428 37.3988 58.6589C38.2775 59.4291 38.4883 59.7526 38.0842 59.7526C37.9612 59.7526 38.1369 59.9991 38.4708 60.2918C38.9101 60.6923 39.2088 60.8309 39.6306 60.8309C40.1929 60.8309 40.4038 61.0311 40.4038 61.6011C40.4038 61.7551 40.5971 61.9862 40.8431 62.1248C41.2825 62.3713 41.2825 62.3713 41.2825 61.8938C41.2825 61.5549 41.1243 61.293 40.7377 60.9695C40.2105 60.5382 40.1754 60.2147 40.6674 60.2147C40.808 60.2147 41.0013 60.3534 41.1067 60.5228C41.3703 60.9695 41.8624 60.9387 41.7218 60.4766C41.6163 60.1377 39.4197 58.2122 39.1386 58.2122C39.0683 58.2122 38.998 58.1044 38.998 57.9812C38.998 57.8579 39.0858 57.7501 39.1737 57.7501C39.5603 57.7501 39.3143 57.4266 38.6465 57.0569C37.803 56.5948 37.3812 55.9633 37.7854 55.7476C37.9787 55.6398 37.9084 55.5628 37.4691 55.4395C36.8892 55.2547 36.362 54.7001 36.362 54.2842C36.362 54.161 36.4499 54.0532 36.5377 54.0532C36.6432 54.0532 36.7135 53.9762 36.7135 53.8837C36.7135 53.7759 36.5553 53.7451 36.2917 53.8067C35.7997 53.9145 35.5888 53.7759 35.8524 53.4986C36.1336 53.206 35.9051 52.559 35.4482 52.3433C34.9035 52.0815 34.0072 51.2034 33.9369 50.8646C33.9018 50.7105 33.7436 50.4641 33.603 50.3254C33.4273 50.156 33.3746 49.9249 33.4449 49.6939C33.5152 49.4012 33.4449 49.2934 33.111 49.1547C32.8123 49.0315 32.6717 48.8466 32.6717 48.5848C32.6717 48.3383 32.4432 47.9686 32.0742 47.6605C31.4943 47.1368 31.2658 47.0136 31.2658 47.2446ZM35.9227 54.9774C35.9754 55.0544 35.9403 55.1314 35.8524 55.1314C35.747 55.1314 35.6591 55.0544 35.6591 54.9774C35.6591 54.885 35.6942 54.8234 35.7294 54.8234C35.7821 54.8234 35.87 54.885 35.9227 54.9774Z" fill="#9d8162"/>
<path d="M24.5529 48.1535C24.6759 48.1997 24.8341 48.1843 24.8868 48.1381C24.9571 48.0918 24.8517 48.0456 24.6584 48.061C24.4651 48.061 24.4124 48.1073 24.5529 48.1535Z" fill="#9d8162"/>
<path d="M30.0358 48.5386C30.0358 48.6772 30.1236 48.8466 30.2291 48.8929C30.5278 49.0623 30.5805 48.8929 30.2994 48.5694C30.0709 48.3075 30.0533 48.3075 30.0358 48.5386Z" fill="#9d8162"/>
<path d="M25.8182 48.9083C25.8182 49.0315 25.9061 49.0931 25.994 49.0469C26.0994 49.0007 26.1697 48.8929 26.1697 48.8004C26.1697 48.7234 26.0994 48.6618 25.994 48.6618C25.9061 48.6618 25.8182 48.7696 25.8182 48.9083Z" fill="#9d8162"/>
<path d="M34.2533 50.0327C34.2533 50.1098 34.3412 50.233 34.429 50.2792C34.5345 50.3254 34.6048 50.31 34.6048 50.2176C34.6048 50.1406 34.5345 50.0173 34.429 49.9711C34.3412 49.9249 34.2533 49.9403 34.2533 50.0327Z" fill="#9d8162"/>
<path d="M11.9706 50.8492C12.2167 51.1264 12.5154 51.3729 12.6384 51.4037C12.7614 51.4499 12.6384 51.2188 12.3572 50.9108C12.0761 50.6027 11.7773 50.3562 11.6895 50.3562C11.6016 50.3562 11.7422 50.5719 11.9706 50.8492Z" fill="#9d8162"/>
<path d="M6.15402 50.7567C6.15402 50.9262 6.20674 50.9724 6.25946 50.8492C6.31218 50.7413 6.2946 50.6027 6.24189 50.5565C6.18917 50.4949 6.13645 50.5873 6.15402 50.7567Z" fill="#9d8162"/>
<path d="M6.66364 51.5423C6.66364 51.6039 6.7515 51.7734 6.83937 51.8966C6.97995 52.0969 7.0151 52.0969 7.0151 51.8658C7.0151 51.7272 6.9448 51.5577 6.83937 51.5115C6.7515 51.4653 6.66364 51.4653 6.66364 51.5423Z" fill="#9d8162"/>
<path d="M23.2702 51.8966C23.2175 51.9736 23.235 52.0507 23.3405 52.0507C23.4283 52.0507 23.5689 51.9736 23.6216 51.8966C23.6744 51.8042 23.6568 51.7426 23.5513 51.7426C23.4635 51.7426 23.3229 51.8042 23.2702 51.8966Z" fill="#9d8162"/>
<path d="M59.7341 52.0661C59.7341 52.2355 59.8044 52.3433 59.9099 52.2817C59.9977 52.2355 60.0329 52.0969 59.9626 51.9736C59.8396 51.6502 59.7341 51.681 59.7341 52.0661Z" fill="#9d8162"/>
<path d="M2.44604 53.0365C2.44604 53.0673 2.56906 53.1443 2.72721 53.1905C2.8678 53.2368 2.93809 53.2213 2.88537 53.1289C2.77993 52.9749 2.44604 52.9133 2.44604 53.0365Z" fill="#9d8162"/>
<path d="M23.7095 53.1289C23.7095 53.206 23.7973 53.283 23.9028 53.283C23.9906 53.283 24.0258 53.206 23.9731 53.1289C23.9203 53.0365 23.8325 52.9749 23.7798 52.9749C23.7446 52.9749 23.7095 53.0365 23.7095 53.1289Z" fill="#9d8162"/>
<path d="M0.00344699 53.8375C0.00344699 54.007 0.0561661 54.0532 0.108885 53.9299C0.161604 53.8221 0.144031 53.6835 0.0913121 53.6373C0.038593 53.5757 -0.014126 53.6681 0.00344699 53.8375Z" fill="#9d8162"/>
<path d="M21.425 53.7451C21.425 53.8221 21.548 53.8991 21.6886 53.8991C21.8292 53.8991 21.9522 53.8221 21.9522 53.7451C21.9522 53.6527 21.8292 53.5911 21.6886 53.5911C21.548 53.5911 21.425 53.6527 21.425 53.7451Z" fill="#9d8162"/>
<path d="M33.7261 54.1148C33.7261 54.238 33.814 54.3921 33.9019 54.4383C34.0073 54.4845 34.0776 54.3921 34.0776 54.2226C34.0776 54.0378 34.0073 53.8991 33.9019 53.8991C33.814 53.8991 33.7261 53.9915 33.7261 54.1148Z" fill="#9d8162"/>
<path d="M2.62183 54.3304C2.62183 54.4383 2.77998 54.7926 2.97329 55.1314C3.16659 55.4703 3.34232 55.9016 3.34232 56.0865C3.35989 56.3483 3.37747 56.3792 3.44776 56.1635C3.4829 56.0249 3.39504 55.5627 3.21931 55.1622C2.90299 54.3921 2.62183 54.007 2.62183 54.3304Z" fill="#9d8162"/>
<path d="M18.0509 54.315C18.1739 54.3613 18.3321 54.3458 18.3848 54.2996C18.4551 54.2534 18.3497 54.2072 18.1564 54.2226C17.9631 54.2226 17.9103 54.2688 18.0509 54.315Z" fill="#9d8162"/>
<path d="M36.8892 54.315C36.8892 54.3921 36.9771 54.5461 37.065 54.6693C37.2055 54.8542 37.2407 54.8388 37.2407 54.5461C37.2407 54.3613 37.1704 54.2072 37.065 54.2072C36.9771 54.2072 36.8892 54.2534 36.8892 54.315Z" fill="#9d8162"/>
<path d="M20.8978 54.9928C20.8978 55.0698 20.9856 55.1006 21.0735 55.0544C21.1789 55.0082 21.2492 54.9312 21.2492 54.885C21.2492 54.8542 21.1789 54.8234 21.0735 54.8234C20.9856 54.8234 20.8978 54.9004 20.8978 54.9928Z" fill="#9d8162"/>
<path d="M6.62843 55.0698C6.43513 55.2393 6.69872 55.6552 7.43679 56.3021C7.84097 56.641 8.24515 57.0569 8.36816 57.2264C8.84263 57.9041 8.54389 57.134 7.92884 56.1327C7.33135 55.1468 6.9096 54.808 6.62843 55.0698Z" fill="#9d8162"/>
<path d="M19.5798 55.5936C19.6325 55.6706 19.7204 55.7476 19.7731 55.7476C19.8083 55.7476 19.8434 55.6706 19.8434 55.5936C19.8434 55.5011 19.7556 55.4395 19.6501 55.4395C19.5623 55.4395 19.5271 55.5011 19.5798 55.5936Z" fill="#9d8162"/>
<path d="M12.3924 56.6102C12.5505 57.5961 12.6384 57.6577 12.6384 56.7797C12.6384 56.3946 12.5505 56.0249 12.4451 55.9787C12.3221 55.9016 12.3045 56.1019 12.3924 56.6102Z" fill="#9d8162"/>
<path d="M20.0191 56.0403C20.0191 56.1173 20.107 56.2405 20.1948 56.2867C20.3003 56.333 20.3706 56.3175 20.3706 56.2251C20.3706 56.1481 20.3003 56.0249 20.1948 55.9787C20.107 55.9324 20.0191 55.9479 20.0191 56.0403Z" fill="#9d8162"/>
<path d="M19.4567 56.7797C19.5798 56.8259 19.7379 56.8105 19.7906 56.7643C19.8609 56.718 19.7555 56.6718 19.5622 56.6872C19.3689 56.6872 19.3162 56.7334 19.4567 56.7797Z" fill="#9d8162"/>
<path d="M24.1488 57.134C23.8676 57.3804 23.7095 57.5961 23.8149 57.5961C24.0258 57.5807 25.045 56.6718 24.8341 56.6718C24.7287 56.6718 24.43 56.8721 24.1488 57.134Z" fill="#9d8162"/>
<path d="M8.7724 57.9658C8.7724 58.089 8.86027 58.243 8.94813 58.2892C9.05357 58.3355 9.12386 58.2738 9.12386 58.1506C9.12386 58.0274 9.05357 57.8733 8.94813 57.8271C8.86027 57.7809 8.7724 57.8425 8.7724 57.9658Z" fill="#9d8162"/>
<path d="M9.036 59.1211C8.98328 59.1981 9.01843 59.3059 9.12387 59.3675C9.21173 59.4137 9.2996 59.3521 9.2996 59.2289C9.2996 58.9516 9.19416 58.9054 9.036 59.1211Z" fill="#9d8162"/>
<path d="M6.38246 59.5062C6.31216 59.6602 6.34731 59.845 6.45275 59.9375C6.59333 60.0607 6.6812 60.0453 6.76906 59.845C6.83935 59.691 6.80421 59.5062 6.69877 59.4137C6.55819 59.2905 6.47032 59.3059 6.38246 59.5062Z" fill="#9d8162"/>
<path d="M6.83936 60.3226C6.83936 60.3842 6.92722 60.5536 7.01509 60.6769C7.15567 60.8771 7.19082 60.8771 7.19082 60.6461C7.19082 60.5074 7.12052 60.338 7.01509 60.2918C6.92722 60.2455 6.83936 60.2455 6.83936 60.3226Z" fill="#9d8162"/>
<path d="M40.6674 62.9874C40.7201 63.0645 40.8607 63.1415 40.9486 63.1415C41.054 63.1415 41.0716 63.0645 41.0189 62.9874C40.9661 62.895 40.8256 62.8334 40.7377 62.8334C40.6323 62.8334 40.6147 62.895 40.6674 62.9874Z" fill="#9d8162"/>
<path d="M44.6214 63.5112C44.6214 63.542 44.7444 63.619 44.9026 63.6652C45.0432 63.7114 45.1134 63.696 45.0607 63.6036C44.9553 63.4496 44.6214 63.3879 44.6214 63.5112Z" fill="#9d8162"/>
<path d="M41.7218 63.9117C41.88 64.3892 42.1611 64.6819 42.1611 64.3584C42.1611 64.2506 42.0206 64.0041 41.88 63.8347C41.5988 63.542 41.5988 63.542 41.7218 63.9117Z" fill="#9d8162"/>
<path d="M45.3243 64.0349C45.3243 64.2198 45.6582 64.4354 45.7812 64.3276C45.8163 64.2968 45.746 64.1735 45.5879 64.0657C45.4297 63.9425 45.3243 63.9425 45.3243 64.0349Z" fill="#9d8162"/>
<path d="M41.9854 65.868C41.9854 65.9296 42.0733 66.099 42.1611 66.2223C42.3017 66.4225 42.3369 66.4225 42.3369 66.1915C42.3369 66.0528 42.2666 65.8834 42.1611 65.8372C42.0733 65.791 41.9854 65.791 41.9854 65.868Z" fill="#9d8162"/>
<path d="M42.9519 72.846C42.8992 72.923 42.9343 73 43.0222 73C43.1276 73 43.2155 72.923 43.2155 72.846C43.2155 72.7535 43.1803 72.6919 43.1452 72.6919C43.0925 72.6919 43.0046 72.7535 42.9519 72.846Z" fill="#9d8162"/>
</svg>